<?xml version="1.0" encoding="utf-8"?>
<!-- Generator: Adobe Illustrator 26.2.1, SVG Export Plug-In . SVG Version: 6.00 Build 0)  -->
<svg version="1.1" id="Layer_1" xmlns="http://www.w3.org/2000/svg" xmlns:xlink="http://www.w3.org/1999/xlink" x="0px" y="0px"
	 viewBox="0 0 297.6 312.8" style="enable-background:new 0 0 297.6 312.8;" xml:space="preserve">
<style type="text/css">
	.st0{fill:#69CEF6;}
	.st1{enable-background:new    ;}
</style>
<path class="st0" d="M37.6,103.7V77.1c14.7,0,26.6,11.9,26.6,26.6s-11.9,26.6-26.6,26.6S11,118.4,11,103.7s11.9-26.6,26.6-26.6
	V103.7z"/>
<path class="st0" d="M172.9,176.8V77.1c55.1,0,99.7,44.6,99.7,99.7s-44.6,99.7-99.7,99.7s-99.7-44.6-99.7-99.7s44.6-99.7,99.7-99.7
	L172.9,176.8L172.9,176.8z"/>
<g class="st1">
	<path d="M14.8,23.9c-0.3,0-0.7,0-1,0c-0.3,0-0.7,0-1,0c-0.3,0-0.7,0-1,0v-9c0.4,0,0.7,0,1-0.1c0.3,0,0.6,0,0.9,0c0.3,0,0.6,0,0.9,0
		c1,0,1.8,0.2,2.4,0.5c0.6,0.3,1,0.8,1.3,1.5s0.4,1.6,0.4,2.7c0,1.1-0.1,1.9-0.4,2.6c-0.3,0.7-0.7,1.2-1.3,1.5S15.7,23.9,14.8,23.9z
		 M14.8,23c0.6,0,1.2-0.1,1.6-0.4c0.4-0.2,0.7-0.6,1-1.2s0.3-1.3,0.3-2.1c0-0.9-0.1-1.6-0.3-2.2c-0.2-0.5-0.5-0.9-1-1.2
		s-1-0.4-1.7-0.4c-0.2,0-0.3,0-0.5,0c-0.2,0-0.4,0-0.6,0c-0.2,0-0.4,0-0.6,0v7.3c0.1,0,0.3,0,0.4,0s0.3,0,0.5,0c0.2,0,0.3,0,0.5,0
		C14.6,23,14.7,23,14.8,23z"/>
	<path d="M20.3,23.8v-9H26v1h-4.6v2.8h4.3v1h-4.3v3.2h4.8v1H20.3z"/>
	<path d="M27.5,23.8v-9h5.7v1h-4.5v3.3h3.9v1h-3.9v3.7H27.5z"/>
	<path d="M34.3,23.8v-9H40v1h-4.6v2.8h4.3v1h-4.3v3.2h4.8v1H34.3z"/>
	<path d="M41.4,23.8v-9h1l4.7,7.3v-7.2h1v9h-1l-4.7-7.2v7.2H41.4z"/>
	<path d="M49.7,19.4c0-1.1,0.2-2.1,0.5-2.8c0.3-0.7,0.8-1.2,1.4-1.5s1.3-0.5,2.2-0.5c0.2,0,0.5,0,0.7,0c0.2,0,0.4,0,0.6,0.1
		c0.2,0,0.4,0.1,0.6,0.1s0.4,0.1,0.6,0.2l-0.2,0.9c-0.2-0.1-0.5-0.1-0.7-0.2c-0.2,0-0.5-0.1-0.7-0.1c-0.2,0-0.5,0-0.7,0
		c-0.5,0-0.9,0.1-1.3,0.2c-0.4,0.1-0.7,0.3-0.9,0.6c-0.2,0.3-0.4,0.7-0.6,1.2c-0.1,0.5-0.2,1.1-0.2,1.8c0,0.6,0.1,1.2,0.2,1.6
		c0.1,0.4,0.3,0.8,0.6,1.1s0.6,0.5,0.9,0.6c0.4,0.1,0.8,0.2,1.2,0.2c0.4,0,0.8,0,1.3-0.1s0.8-0.1,1.2-0.3l0.2,0.9
		c-0.2,0.1-0.4,0.1-0.6,0.2s-0.4,0.1-0.7,0.1c-0.2,0-0.5,0.1-0.7,0.1c-0.3,0-0.5,0-0.8,0c-0.6,0-1.2-0.1-1.6-0.2
		c-0.5-0.2-0.9-0.4-1.2-0.8s-0.6-0.8-0.7-1.4S49.7,20.3,49.7,19.4z"/>
	<path d="M57.6,23.8v-9h5.7v1h-4.6v2.8H63v1h-4.3v3.2h4.8v1H57.6z"/>
	<path d="M68.2,23.8v-8.9c0.5,0,0.9-0.1,1.2-0.1c0.4,0,0.7,0,1,0c0.3,0,0.6,0,0.8,0c0.8,0,1.4,0.1,1.8,0.2s0.8,0.4,1,0.7
		c0.2,0.3,0.3,0.7,0.3,1.3c0,0.5-0.1,1-0.4,1.3c-0.2,0.4-0.6,0.6-1,0.8v0c0.6,0.1,1,0.4,1.3,0.8c0.3,0.4,0.5,0.9,0.5,1.5
		c0,0.5-0.1,0.9-0.2,1.2s-0.3,0.6-0.6,0.8c-0.3,0.2-0.6,0.4-1.1,0.5c-0.4,0.1-1,0.2-1.6,0.2c-0.2,0-0.4,0-0.6,0c-0.2,0-0.4,0-0.5,0
		c-0.2,0-0.3,0-0.5,0c-0.2,0-0.4,0-0.6,0S68.5,23.8,68.2,23.8z M69.3,18.8h2.4c0.3,0,0.6-0.1,0.8-0.2c0.2-0.1,0.4-0.3,0.5-0.6
		c0.1-0.2,0.2-0.5,0.2-0.8c0-0.4-0.1-0.7-0.2-0.9c-0.1-0.2-0.4-0.4-0.7-0.5s-0.7-0.2-1.2-0.2c-0.1,0-0.3,0-0.4,0s-0.2,0-0.3,0
		c-0.1,0-0.2,0-0.3,0c-0.1,0-0.2,0-0.4,0c-0.1,0-0.3,0-0.5,0V18.8z M69.3,22.9c0.2,0,0.5,0,0.6,0s0.3,0,0.5,0c0.1,0,0.3,0,0.4,0
		c0.1,0,0.2,0,0.4,0c0.6,0,1.1-0.1,1.4-0.2s0.6-0.3,0.8-0.6c0.2-0.3,0.2-0.6,0.2-1c0-0.5-0.2-0.9-0.5-1.2c-0.3-0.3-0.8-0.4-1.4-0.4
		h-2.5V22.9z"/>
	<path d="M75.9,21.1v-6.3H77v6.3c0,0.3,0,0.6,0.1,0.8c0.1,0.2,0.2,0.4,0.4,0.5c0.2,0.1,0.3,0.3,0.5,0.3c0.2,0.1,0.4,0.1,0.6,0.2
		c0.2,0,0.5,0,0.7,0c0.2,0,0.5,0,0.7-0.1s0.4-0.1,0.6-0.2s0.4-0.2,0.5-0.3c0.2-0.1,0.3-0.3,0.4-0.5c0.1-0.2,0.1-0.5,0.1-0.8v-6.3
		h1.1v6.3c0,0.4-0.1,0.8-0.2,1.1s-0.3,0.6-0.5,0.8s-0.5,0.4-0.7,0.5s-0.6,0.2-0.9,0.3c-0.3,0.1-0.7,0.1-1.1,0.1
		c-0.4,0-0.7,0-1.1-0.1s-0.7-0.1-0.9-0.3s-0.5-0.3-0.7-0.5s-0.4-0.5-0.5-0.8S75.9,21.5,75.9,21.1z"/>
	<path d="M87.4,23.9c-0.3,0-0.7,0-1,0c-0.3,0-0.7,0-1,0c-0.3,0-0.7,0-1,0v-9c0.4,0,0.7,0,1-0.1c0.3,0,0.6,0,0.9,0c0.3,0,0.6,0,0.9,0
		c1,0,1.8,0.2,2.4,0.5c0.6,0.3,1,0.8,1.3,1.5s0.4,1.6,0.4,2.7c0,1.1-0.1,1.9-0.4,2.6c-0.3,0.7-0.7,1.2-1.3,1.5S88.3,23.9,87.4,23.9z
		 M87.4,23c0.6,0,1.2-0.1,1.6-0.4c0.4-0.2,0.7-0.6,1-1.2s0.3-1.3,0.3-2.1c0-0.9-0.1-1.6-0.3-2.2c-0.2-0.5-0.5-0.9-1-1.2
		s-1-0.4-1.7-0.4c-0.2,0-0.3,0-0.5,0c-0.2,0-0.4,0-0.6,0c-0.2,0-0.4,0-0.6,0v7.3c0.1,0,0.3,0,0.4,0s0.3,0,0.5,0c0.2,0,0.3,0,0.5,0
		C87.2,23,87.3,23,87.4,23z"/>
	<path d="M92.6,19.4c0-1.1,0.1-2,0.4-2.7c0.3-0.7,0.7-1.2,1.3-1.6c0.6-0.4,1.3-0.5,2.2-0.5c0.2,0,0.5,0,0.7,0c0.2,0,0.5,0,0.7,0.1
		c0.2,0,0.4,0.1,0.6,0.1c0.2,0,0.4,0.1,0.6,0.2l-0.2,0.9c-0.4-0.1-0.8-0.2-1.2-0.2c-0.4-0.1-0.8-0.1-1.2-0.1c-0.6,0-1.2,0.1-1.6,0.4
		c-0.4,0.3-0.7,0.7-1,1.3s-0.3,1.3-0.3,2.2c0,0.8,0.1,1.5,0.3,2c0.2,0.5,0.5,0.9,0.9,1.2c0.4,0.3,0.9,0.4,1.5,0.4
		c0.4,0,0.8,0,1.1-0.1c0.3,0,0.6-0.1,0.9-0.2v-2.7h-2.1v-0.9h3.1v4.2c-0.4,0.2-0.9,0.3-1.4,0.4c-0.5,0.1-1.1,0.1-1.7,0.1
		c-0.8,0-1.5-0.2-2-0.5c-0.5-0.3-1-0.8-1.2-1.5C92.7,21.3,92.6,20.4,92.6,19.4z"/>
	<path d="M101,23.8v-9h5.7v1h-4.6v2.8h4.3v1h-4.3v3.2h4.8v1H101z"/>
	<path d="M114,15.8h-2.8v8h-1.1v-8h-2.8v-1h6.6V15.8z"/>
	<path d="M120.4,15.1l-0.2,0.9c-0.2-0.1-0.3-0.1-0.5-0.1c-0.2,0-0.4-0.1-0.6-0.1s-0.4-0.1-0.6-0.1c-0.2,0-0.4,0-0.6,0
		c-0.7,0-1.2,0.1-1.6,0.4c-0.4,0.3-0.6,0.6-0.6,1.1c0,0.2,0,0.4,0.1,0.6s0.2,0.3,0.4,0.5c0.2,0.1,0.4,0.3,0.8,0.4
		c0.3,0.1,0.7,0.3,1.2,0.4c0.5,0.2,0.9,0.3,1.3,0.5s0.6,0.4,0.8,0.6s0.4,0.4,0.5,0.7s0.1,0.5,0.1,0.9c0,0.5-0.1,0.9-0.4,1.3
		s-0.7,0.6-1.2,0.8s-1.1,0.3-1.9,0.3c-0.2,0-0.5,0-0.8,0s-0.6-0.1-0.9-0.1c-0.3,0-0.6-0.1-0.8-0.2c-0.3-0.1-0.5-0.1-0.7-0.2l0.2-0.9
		c0.2,0.1,0.4,0.1,0.7,0.2s0.5,0.1,0.8,0.2c0.3,0,0.5,0.1,0.8,0.1c0.3,0,0.5,0,0.7,0c0.5,0,0.9-0.1,1.2-0.2c0.3-0.1,0.6-0.3,0.8-0.5
		c0.2-0.2,0.3-0.5,0.3-0.8c0-0.2-0.1-0.4-0.2-0.6c-0.1-0.2-0.3-0.3-0.5-0.5s-0.5-0.3-0.8-0.4c-0.3-0.1-0.7-0.3-1.2-0.4
		c-0.5-0.2-0.8-0.3-1.2-0.5c-0.3-0.2-0.6-0.4-0.8-0.6c-0.2-0.2-0.4-0.4-0.4-0.7c-0.1-0.2-0.1-0.5-0.1-0.8c0-0.3,0.1-0.7,0.2-1
		c0.1-0.3,0.4-0.5,0.6-0.8c0.3-0.2,0.6-0.4,1-0.5c0.4-0.1,0.9-0.2,1.4-0.2c0.3,0,0.6,0,0.9,0.1s0.6,0.1,0.9,0.1
		C120,14.9,120.2,15,120.4,15.1z"/>
	<path d="M121.9,17.5c0-0.2,0-0.4,0.1-0.5c0.1-0.1,0.2-0.1,0.5-0.1c0.2,0,0.4,0,0.5,0.1c0.1,0.1,0.1,0.3,0.1,0.5s0,0.4-0.1,0.5
		c-0.1,0.1-0.2,0.1-0.5,0.1c-0.2,0-0.4,0-0.5-0.1C121.9,17.9,121.9,17.7,121.9,17.5z M121.9,23.2c0-0.2,0-0.4,0.1-0.5
		c0.1-0.1,0.2-0.1,0.5-0.1c0.2,0,0.4,0,0.5,0.1c0.1,0.1,0.1,0.3,0.1,0.5s0,0.4-0.1,0.5c-0.1,0.1-0.2,0.1-0.5,0.1
		c-0.2,0-0.4,0-0.5-0.1C121.9,23.6,121.9,23.4,121.9,23.2z"/>
	<path d="M134.7,23.9c-0.2,0-0.4,0-0.6-0.1s-0.4-0.2-0.7-0.4c-0.2-0.2-0.5-0.4-0.7-0.7c-0.2-0.3-0.5-0.6-0.8-1
		c-0.3-0.4-0.6-0.9-0.9-1.4c-0.1,0-0.2,0-0.3,0s-0.2,0-0.3,0c-0.2,0-0.5,0-0.8,0s-0.5,0-0.8,0v3.5h-1.1v-9c0.4,0,0.7,0,1-0.1
		s0.6,0,0.9,0c0.3,0,0.6,0,0.9,0c0.7,0,1.2,0,1.7,0.1c0.5,0.1,0.8,0.2,1.1,0.4s0.5,0.5,0.6,0.8c0.1,0.3,0.2,0.7,0.2,1.2
		c0,0.5-0.1,1-0.2,1.3c-0.2,0.4-0.4,0.7-0.7,0.9c-0.3,0.2-0.7,0.4-1.1,0.5c0.3,0.5,0.6,0.9,0.8,1.3c0.3,0.4,0.5,0.6,0.7,0.9
		c0.2,0.2,0.4,0.4,0.6,0.5c0.2,0.1,0.4,0.2,0.5,0.2c0,0,0,0,0.1,0c0,0,0.1,0,0.1,0l0,1.1c0,0-0.1,0-0.1,0S134.8,23.9,134.7,23.9z
		 M130.6,19.4c0.4,0,0.8,0,1.1-0.1c0.3-0.1,0.6-0.2,0.8-0.3c0.2-0.1,0.3-0.3,0.4-0.6c0.1-0.2,0.1-0.5,0.1-0.9c0-0.5-0.1-0.8-0.2-1.1
		s-0.4-0.5-0.8-0.6c-0.4-0.1-0.9-0.2-1.5-0.2c-0.2,0-0.3,0-0.5,0s-0.3,0-0.4,0c-0.1,0-0.2,0-0.4,0c-0.1,0-0.3,0-0.5,0v3.7
		c0.2,0,0.3,0,0.5,0c0.1,0,0.3,0,0.4,0c0.1,0,0.3,0,0.4,0C130.3,19.4,130.4,19.4,130.6,19.4z"/>
	<path d="M135.7,21.1v-6.3h1.1v6.3c0,0.3,0,0.6,0.1,0.8c0.1,0.2,0.2,0.4,0.4,0.5c0.2,0.1,0.3,0.3,0.5,0.3c0.2,0.1,0.4,0.1,0.6,0.2
		c0.2,0,0.5,0,0.7,0c0.2,0,0.5,0,0.7-0.1s0.4-0.1,0.6-0.2s0.4-0.2,0.5-0.3c0.2-0.1,0.3-0.3,0.4-0.5c0.1-0.2,0.1-0.5,0.1-0.8v-6.3
		h1.1v6.3c0,0.4-0.1,0.8-0.2,1.1s-0.3,0.6-0.5,0.8s-0.5,0.4-0.7,0.5s-0.6,0.2-0.9,0.3c-0.3,0.1-0.7,0.1-1.1,0.1
		c-0.4,0-0.7,0-1.1-0.1s-0.7-0.1-0.9-0.3s-0.5-0.3-0.7-0.5s-0.4-0.5-0.5-0.8S135.7,21.5,135.7,21.1z"/>
	<path d="M149.7,15.1l-0.2,0.9c-0.2-0.1-0.3-0.1-0.5-0.1c-0.2,0-0.4-0.1-0.6-0.1s-0.4-0.1-0.6-0.1c-0.2,0-0.4,0-0.6,0
		c-0.7,0-1.2,0.1-1.6,0.4c-0.4,0.3-0.6,0.6-0.6,1.1c0,0.2,0,0.4,0.1,0.6s0.2,0.3,0.4,0.5c0.2,0.1,0.4,0.3,0.8,0.4
		c0.3,0.1,0.7,0.3,1.2,0.4c0.5,0.2,0.9,0.3,1.3,0.5s0.6,0.4,0.8,0.6s0.4,0.4,0.5,0.7s0.1,0.5,0.1,0.9c0,0.5-0.1,0.9-0.4,1.3
		s-0.7,0.6-1.2,0.8s-1.1,0.3-1.9,0.3c-0.2,0-0.5,0-0.8,0s-0.6-0.1-0.9-0.1c-0.3,0-0.6-0.1-0.8-0.2c-0.3-0.1-0.5-0.1-0.7-0.2l0.2-0.9
		c0.2,0.1,0.4,0.1,0.7,0.2s0.5,0.1,0.8,0.2c0.3,0,0.5,0.1,0.8,0.1c0.3,0,0.5,0,0.7,0c0.5,0,0.9-0.1,1.2-0.2c0.3-0.1,0.6-0.3,0.8-0.5
		c0.2-0.2,0.3-0.5,0.3-0.8c0-0.2-0.1-0.4-0.2-0.6c-0.1-0.2-0.3-0.3-0.5-0.5s-0.5-0.3-0.8-0.4c-0.3-0.1-0.7-0.3-1.2-0.4
		c-0.5-0.2-0.8-0.3-1.2-0.5c-0.3-0.2-0.6-0.4-0.8-0.6c-0.2-0.2-0.4-0.4-0.4-0.7c-0.1-0.2-0.1-0.5-0.1-0.8c0-0.3,0.1-0.7,0.2-1
		c0.1-0.3,0.4-0.5,0.6-0.8c0.3-0.2,0.6-0.4,1-0.5c0.4-0.1,0.9-0.2,1.4-0.2c0.3,0,0.6,0,0.9,0.1s0.6,0.1,0.9,0.1
		C149.2,14.9,149.5,15,149.7,15.1z"/>
	<path d="M156.8,15.1l-0.2,0.9c-0.2-0.1-0.3-0.1-0.5-0.1c-0.2,0-0.4-0.1-0.6-0.1c-0.2,0-0.4-0.1-0.6-0.1c-0.2,0-0.4,0-0.6,0
		c-0.7,0-1.2,0.1-1.6,0.4S152,16.5,152,17c0,0.2,0,0.4,0.1,0.6s0.2,0.3,0.4,0.5c0.2,0.1,0.4,0.3,0.8,0.4c0.3,0.1,0.7,0.3,1.2,0.4
		c0.5,0.2,0.9,0.3,1.3,0.5c0.3,0.2,0.6,0.4,0.8,0.6c0.2,0.2,0.4,0.4,0.5,0.7c0.1,0.3,0.1,0.5,0.1,0.9c0,0.5-0.1,0.9-0.4,1.3
		c-0.3,0.4-0.7,0.6-1.2,0.8c-0.5,0.2-1.1,0.3-1.9,0.3c-0.2,0-0.5,0-0.8,0c-0.3,0-0.6-0.1-0.9-0.1s-0.6-0.1-0.8-0.2
		c-0.3-0.1-0.5-0.1-0.7-0.2l0.2-0.9c0.2,0.1,0.4,0.1,0.7,0.2c0.2,0.1,0.5,0.1,0.8,0.2c0.3,0,0.5,0.1,0.8,0.1c0.3,0,0.5,0,0.7,0
		c0.5,0,0.9-0.1,1.2-0.2c0.3-0.1,0.6-0.3,0.8-0.5s0.3-0.5,0.3-0.8c0-0.2-0.1-0.4-0.2-0.6c-0.1-0.2-0.3-0.3-0.5-0.5s-0.5-0.3-0.8-0.4
		c-0.3-0.1-0.7-0.3-1.2-0.4c-0.5-0.2-0.8-0.3-1.2-0.5c-0.3-0.2-0.6-0.4-0.8-0.6c-0.2-0.2-0.3-0.4-0.4-0.7c-0.1-0.2-0.1-0.5-0.1-0.8
		c0-0.3,0.1-0.7,0.2-1c0.1-0.3,0.4-0.5,0.6-0.8c0.3-0.2,0.6-0.4,1-0.5s0.9-0.2,1.4-0.2c0.3,0,0.6,0,0.9,0.1s0.6,0.1,0.9,0.1
		C156.4,14.9,156.6,15,156.8,15.1z"/>
	<path d="M158.6,23.8v-9h1.1v9H158.6z"/>
	<path d="M160.7,23.8l3.1-9.1h1.2l3.1,9.1h-1.2l-0.8-2.3h-3.5l-0.8,2.3H160.7z M162.9,20.5h3l-1.5-4.7L162.9,20.5z"/>
	<path d="M174.6,23.8l-3.1-8.9l1.2-0.1l2.6,7.9l2.5-7.9l1.2,0.1l-3.1,8.9H174.6z"/>
	<path d="M185.4,15.1l-0.2,0.9c-0.2-0.1-0.3-0.1-0.5-0.1c-0.2,0-0.4-0.1-0.6-0.1c-0.2,0-0.4-0.1-0.6-0.1c-0.2,0-0.4,0-0.6,0
		c-0.7,0-1.2,0.1-1.6,0.4s-0.6,0.6-0.6,1.1c0,0.2,0,0.4,0.1,0.6s0.2,0.3,0.4,0.5c0.2,0.1,0.4,0.3,0.8,0.4c0.3,0.1,0.7,0.3,1.2,0.4
		c0.5,0.2,0.9,0.3,1.3,0.5c0.3,0.2,0.6,0.4,0.8,0.6c0.2,0.2,0.4,0.4,0.5,0.7c0.1,0.3,0.1,0.5,0.1,0.9c0,0.5-0.1,0.9-0.4,1.3
		c-0.3,0.4-0.7,0.6-1.2,0.8c-0.5,0.2-1.1,0.3-1.9,0.3c-0.2,0-0.5,0-0.8,0c-0.3,0-0.6-0.1-0.9-0.1s-0.6-0.1-0.8-0.2
		c-0.3-0.1-0.5-0.1-0.7-0.2l0.2-0.9c0.2,0.1,0.4,0.1,0.7,0.2c0.2,0.1,0.5,0.1,0.8,0.2c0.3,0,0.5,0.1,0.8,0.1c0.3,0,0.5,0,0.7,0
		c0.5,0,0.9-0.1,1.2-0.2c0.3-0.1,0.6-0.3,0.8-0.5s0.3-0.5,0.3-0.8c0-0.2-0.1-0.4-0.2-0.6c-0.1-0.2-0.3-0.3-0.5-0.5s-0.5-0.3-0.8-0.4
		c-0.3-0.1-0.7-0.3-1.2-0.4c-0.5-0.2-0.8-0.3-1.2-0.5c-0.3-0.2-0.6-0.4-0.8-0.6c-0.2-0.2-0.3-0.4-0.4-0.7c-0.1-0.2-0.1-0.5-0.1-0.8
		c0-0.3,0.1-0.7,0.2-1c0.1-0.3,0.4-0.5,0.6-0.8c0.3-0.2,0.6-0.4,1-0.5s0.9-0.2,1.4-0.2c0.3,0,0.6,0,0.9,0.1s0.6,0.1,0.9,0.1
		C185,14.9,185.2,15,185.4,15.1z"/>
	<path d="M190.5,21.1v-6.3h1.1v6.3c0,0.3,0,0.6,0.1,0.8c0.1,0.2,0.2,0.4,0.4,0.5c0.2,0.1,0.3,0.3,0.5,0.3c0.2,0.1,0.4,0.1,0.6,0.2
		c0.2,0,0.5,0,0.7,0c0.2,0,0.5,0,0.7-0.1s0.4-0.1,0.6-0.2s0.4-0.2,0.5-0.3c0.2-0.1,0.3-0.3,0.4-0.5s0.1-0.5,0.1-0.8v-6.3h1.1v6.3
		c0,0.4-0.1,0.8-0.2,1.1s-0.3,0.6-0.5,0.8c-0.2,0.2-0.5,0.4-0.7,0.5c-0.3,0.1-0.6,0.2-0.9,0.3s-0.7,0.1-1.1,0.1
		c-0.4,0-0.7,0-1.1-0.1s-0.7-0.1-0.9-0.3s-0.5-0.3-0.7-0.5s-0.4-0.5-0.5-0.8S190.5,21.5,190.5,21.1z"/>
	<path d="M205.6,23.9c-0.2,0-0.5,0-0.7-0.1s-0.5-0.2-0.7-0.4c-0.3-0.2-0.6-0.5-0.9-0.8l-3.2-3.1v4.3H199v-9h1.1v3.3l3.5,3.4
		c0.3,0.3,0.5,0.5,0.7,0.6c0.2,0.2,0.4,0.3,0.5,0.4c0.2,0.1,0.3,0.2,0.4,0.2c0.1,0,0.3,0.1,0.4,0.1c0,0,0,0,0.1,0s0.1,0,0.1,0v1.1
		c-0.1,0-0.1,0-0.1,0C205.7,23.9,205.6,23.9,205.6,23.9z M201.5,19.9l-0.7-0.7c0.2-0.2,0.5-0.4,0.8-0.6c0.3-0.2,0.6-0.5,0.9-0.8
		c0.3-0.3,0.6-0.6,0.9-0.9c0.3-0.3,0.5-0.7,0.8-1.1c0.2-0.4,0.5-0.8,0.6-1.2l0.9,0.4c-0.2,0.5-0.5,1.1-0.8,1.5s-0.7,0.9-1,1.3
		c-0.4,0.4-0.7,0.8-1.1,1.1S201.9,19.7,201.5,19.9z"/>
	<path d="M213.9,23.9c-0.2,0-0.4,0-0.6-0.1s-0.4-0.2-0.7-0.4c-0.2-0.2-0.5-0.4-0.7-0.7c-0.2-0.3-0.5-0.6-0.8-1s-0.6-0.9-0.9-1.4
		c-0.1,0-0.2,0-0.3,0s-0.2,0-0.3,0c-0.2,0-0.5,0-0.8,0c-0.3,0-0.5,0-0.8,0v3.5h-1.1v-9c0.4,0,0.7,0,1-0.1s0.6,0,0.9,0
		c0.3,0,0.6,0,0.9,0c0.7,0,1.2,0,1.7,0.1c0.5,0.1,0.8,0.2,1.1,0.4s0.5,0.5,0.6,0.8c0.1,0.3,0.2,0.7,0.2,1.2c0,0.5-0.1,1-0.2,1.3
		c-0.2,0.4-0.4,0.7-0.7,0.9c-0.3,0.2-0.7,0.4-1.1,0.5c0.3,0.5,0.6,0.9,0.8,1.3c0.3,0.4,0.5,0.6,0.7,0.9c0.2,0.2,0.4,0.4,0.6,0.5
		s0.4,0.2,0.5,0.2c0,0,0,0,0.1,0c0,0,0.1,0,0.1,0l0,1.1c0,0-0.1,0-0.1,0S214,23.9,213.9,23.9z M209.8,19.4c0.4,0,0.8,0,1.1-0.1
		c0.3-0.1,0.6-0.2,0.8-0.3c0.2-0.1,0.3-0.3,0.4-0.6s0.1-0.5,0.1-0.9c0-0.5-0.1-0.8-0.2-1.1s-0.4-0.5-0.8-0.6
		c-0.4-0.1-0.9-0.2-1.5-0.2c-0.2,0-0.3,0-0.5,0s-0.3,0-0.4,0c-0.1,0-0.2,0-0.4,0c-0.1,0-0.3,0-0.5,0v3.7c0.2,0,0.3,0,0.5,0
		c0.1,0,0.3,0,0.4,0c0.1,0,0.3,0,0.4,0C209.5,19.4,209.6,19.4,209.8,19.4z"/>
	<path d="M214.6,23.8l3.1-9.1h1.2l3.1,9.1h-1.2l-0.8-2.3h-3.5l-0.8,2.3H214.6z M216.7,20.5h3l-1.5-4.7L216.7,20.5z"/>
	<path d="M223,23.8v-9h1.1v9H223z"/>
	<path d="M225.9,23.8v-9h1l4.7,7.3v-7.2h1v9h-1l-4.7-7.2v7.2H225.9z"/>
	<path d="M234.5,23.8v-9h5.7v1h-4.6v2.8h4.3v1h-4.3v3.2h4.8v1H234.5z"/>
	<path d="M245.1,20.4c0-0.8,0.1-1.6,0.2-2.3c0.1-0.7,0.3-1.3,0.5-1.9c0.2-0.6,0.5-1,0.9-1.3c0.3-0.3,0.8-0.6,1.2-0.7V15
		c-0.3,0.1-0.6,0.3-0.8,0.6c-0.2,0.3-0.4,0.7-0.6,1.1s-0.3,1-0.3,1.6c-0.1,0.6-0.1,1.3-0.1,2.1s0,1.5,0.1,2.1
		c0.1,0.6,0.2,1.1,0.3,1.6c0.2,0.5,0.3,0.8,0.6,1.1c0.2,0.3,0.5,0.5,0.8,0.6v0.8c-0.5-0.1-0.9-0.3-1.2-0.7s-0.6-0.8-0.9-1.3
		c-0.2-0.6-0.4-1.2-0.5-1.9C245.2,22,245.1,21.2,245.1,20.4z"/>
	<path d="M248.8,23c0.7-0.6,1.3-1.2,1.9-1.7s0.9-0.9,1.3-1.3s0.6-0.7,0.8-1s0.3-0.6,0.4-0.8c0.1-0.2,0.1-0.5,0.1-0.8
		c0-0.4-0.1-0.7-0.2-1c-0.1-0.3-0.3-0.5-0.6-0.6c-0.3-0.1-0.6-0.2-1-0.2c-0.3,0-0.7,0.1-1.1,0.2c-0.4,0.1-0.7,0.3-1.1,0.5l-0.4-0.9
		c0.3-0.2,0.5-0.3,0.8-0.4c0.3-0.1,0.6-0.2,0.9-0.3c0.3-0.1,0.6-0.1,1-0.1c0.6,0,1.1,0.1,1.5,0.3c0.4,0.2,0.7,0.5,0.9,0.9
		c0.2,0.4,0.3,0.9,0.3,1.4c0,0.3,0,0.5-0.1,0.8c-0.1,0.3-0.2,0.6-0.3,0.8c-0.2,0.3-0.4,0.6-0.7,1s-0.7,0.8-1.2,1.3s-1.1,1-1.7,1.6
		h4.8v0.9h-6.3L248.8,23z"/>
	<path d="M256.1,19.3c0-0.9,0.1-1.6,0.2-2.2c0.2-0.6,0.4-1.1,0.7-1.4c0.3-0.3,0.7-0.6,1.1-0.7c0.4-0.1,0.9-0.2,1.4-0.2
		s1,0.1,1.4,0.2s0.8,0.4,1.1,0.7c0.3,0.3,0.5,0.8,0.7,1.4c0.2,0.6,0.2,1.3,0.2,2.2s-0.1,1.6-0.3,2.2c-0.2,0.6-0.4,1.1-0.7,1.4
		c-0.3,0.3-0.7,0.6-1.1,0.7c-0.4,0.1-0.9,0.2-1.4,0.2c-0.5,0-1-0.1-1.4-0.2c-0.4-0.1-0.8-0.4-1.1-0.7c-0.3-0.4-0.5-0.8-0.7-1.4
		C256.2,20.9,256.1,20.2,256.1,19.3z M257.2,19.3c0,0.7,0.1,1.4,0.2,1.8c0.1,0.5,0.3,0.9,0.5,1.1s0.5,0.5,0.8,0.6
		c0.3,0.1,0.6,0.2,0.9,0.2s0.6-0.1,0.9-0.2c0.3-0.1,0.5-0.3,0.7-0.6s0.4-0.7,0.5-1.1c0.1-0.5,0.2-1.1,0.2-1.8c0-0.8-0.1-1.4-0.2-1.9
		s-0.3-0.9-0.5-1.1c-0.2-0.3-0.5-0.5-0.7-0.6c-0.3-0.1-0.6-0.2-0.9-0.2s-0.6,0.1-0.9,0.2c-0.3,0.1-0.5,0.3-0.8,0.6
		c-0.2,0.3-0.4,0.7-0.5,1.1C257.3,17.9,257.2,18.5,257.2,19.3z"/>
	<path d="M264.1,23c0.7-0.6,1.3-1.2,1.9-1.7s0.9-0.9,1.3-1.3s0.6-0.7,0.8-1s0.3-0.6,0.4-0.8c0.1-0.2,0.1-0.5,0.1-0.8
		c0-0.4-0.1-0.7-0.2-1c-0.1-0.3-0.4-0.5-0.6-0.6c-0.3-0.1-0.6-0.2-1-0.2c-0.4,0-0.7,0.1-1.1,0.2c-0.4,0.1-0.7,0.3-1,0.5l-0.4-0.9
		c0.3-0.2,0.5-0.3,0.8-0.4c0.3-0.1,0.6-0.2,0.9-0.3s0.6-0.1,1-0.1c0.6,0,1.1,0.1,1.5,0.3c0.4,0.2,0.7,0.5,0.9,0.9
		c0.2,0.4,0.3,0.9,0.3,1.4c0,0.3,0,0.5-0.1,0.8c-0.1,0.3-0.2,0.6-0.3,0.8c-0.2,0.3-0.4,0.6-0.7,1s-0.7,0.8-1.2,1.3s-1.1,1-1.7,1.6
		h4.8v0.9h-6.3L264.1,23z"/>
	<path d="M271.4,19.3c0-0.9,0.1-1.6,0.2-2.2c0.2-0.6,0.4-1.1,0.7-1.4s0.7-0.6,1.1-0.7c0.4-0.1,0.9-0.2,1.4-0.2s1,0.1,1.4,0.2
		s0.8,0.4,1.1,0.7c0.3,0.3,0.5,0.8,0.7,1.4c0.2,0.6,0.2,1.3,0.2,2.2s-0.1,1.6-0.3,2.2c-0.2,0.6-0.4,1.1-0.7,1.4
		c-0.3,0.3-0.7,0.6-1.1,0.7c-0.4,0.1-0.9,0.2-1.4,0.2c-0.5,0-1-0.1-1.4-0.2c-0.4-0.1-0.8-0.4-1.1-0.7c-0.3-0.4-0.5-0.8-0.7-1.4
		C271.5,20.9,271.4,20.2,271.4,19.3z M272.5,19.3c0,0.7,0.1,1.4,0.2,1.8c0.1,0.5,0.3,0.9,0.5,1.1c0.2,0.3,0.5,0.5,0.8,0.6
		c0.3,0.1,0.6,0.2,0.9,0.2s0.6-0.1,0.9-0.2c0.3-0.1,0.5-0.3,0.7-0.6s0.4-0.7,0.5-1.1c0.1-0.5,0.2-1.1,0.2-1.8c0-0.8-0.1-1.4-0.2-1.9
		c-0.1-0.5-0.3-0.9-0.5-1.1c-0.2-0.3-0.5-0.5-0.8-0.6c-0.3-0.1-0.6-0.2-0.9-0.2s-0.6,0.1-0.9,0.2c-0.3,0.1-0.5,0.3-0.8,0.6
		c-0.2,0.3-0.4,0.7-0.5,1.1S272.5,18.5,272.5,19.3z"/>
	<path d="M278.9,25.7c0.3-0.1,0.6-0.3,0.8-0.6c0.2-0.3,0.4-0.7,0.6-1.1c0.2-0.5,0.3-1,0.3-1.6c0.1-0.6,0.1-1.3,0.1-2.1
		s0-1.5-0.1-2.1c-0.1-0.6-0.2-1.1-0.3-1.6c-0.2-0.5-0.4-0.8-0.6-1.1c-0.2-0.3-0.5-0.5-0.8-0.6v-0.8c0.5,0.1,0.9,0.3,1.2,0.7
		c0.3,0.3,0.6,0.8,0.9,1.3c0.2,0.5,0.4,1.2,0.5,1.9c0.1,0.7,0.2,1.5,0.2,2.3c0,0.8-0.1,1.6-0.2,2.3c-0.1,0.7-0.3,1.3-0.5,1.9
		c-0.2,0.6-0.5,1-0.9,1.3s-0.8,0.6-1.2,0.7V25.7z"/>
</g>
<g class="st1">
	<path d="M17.3,61.8v-5.1h0.9v5.1c0,0.3,0,0.5,0.1,0.7c0.1,0.2,0.2,0.3,0.3,0.4c0.1,0.1,0.3,0.2,0.4,0.3c0.2,0.1,0.3,0.1,0.5,0.1
		s0.4,0,0.6,0c0.2,0,0.4,0,0.6,0c0.2,0,0.4-0.1,0.5-0.1s0.3-0.2,0.4-0.3s0.2-0.3,0.3-0.4c0.1-0.2,0.1-0.4,0.1-0.6v-5.1h0.9v5.1
		c0,0.4,0,0.7-0.1,0.9c-0.1,0.3-0.2,0.5-0.4,0.7c-0.2,0.2-0.4,0.3-0.6,0.4C21.5,64,21.3,64,21,64.1c-0.3,0-0.6,0.1-0.9,0.1
		c-0.3,0-0.6,0-0.9-0.1c-0.3,0-0.5-0.1-0.8-0.2c-0.2-0.1-0.4-0.2-0.6-0.4c-0.2-0.2-0.3-0.4-0.4-0.7C17.3,62.5,17.3,62.2,17.3,61.8z"
		/>
	<path d="M29.7,64.2c-0.2,0-0.4,0-0.6-0.1c-0.2-0.1-0.4-0.2-0.6-0.3s-0.5-0.4-0.7-0.6l-2.6-2.5V64h-0.9v-7.4h0.9v2.7l2.9,2.8
		c0.2,0.2,0.4,0.4,0.6,0.5c0.2,0.1,0.3,0.2,0.4,0.3s0.2,0.1,0.4,0.2c0.1,0,0.2,0,0.3,0c0,0,0,0,0.1,0s0.1,0,0.1,0v0.9
		C29.9,64.1,29.8,64.1,29.7,64.2C29.8,64.1,29.7,64.2,29.7,64.2z M26.4,60.9l-0.6-0.5c0.2-0.1,0.4-0.3,0.6-0.5
		c0.2-0.2,0.5-0.4,0.7-0.6c0.2-0.2,0.5-0.5,0.7-0.7c0.2-0.3,0.4-0.6,0.6-0.9c0.2-0.3,0.4-0.6,0.5-1l0.7,0.3
		c-0.2,0.4-0.4,0.9-0.6,1.2c-0.3,0.4-0.5,0.7-0.8,1.1c-0.3,0.3-0.6,0.6-0.9,0.9S26.7,60.7,26.4,60.9z"/>
	<path d="M36.5,64.2c-0.2,0-0.4,0-0.5-0.1c-0.2-0.1-0.4-0.2-0.6-0.3c-0.2-0.1-0.4-0.3-0.6-0.6c-0.2-0.2-0.4-0.5-0.6-0.8
		s-0.5-0.7-0.7-1.1c-0.1,0-0.2,0-0.3,0s-0.2,0-0.3,0c-0.2,0-0.4,0-0.6,0c-0.2,0-0.4,0-0.6,0V64h-0.9v-7.4c0.3,0,0.6,0,0.9,0
		c0.3,0,0.5,0,0.7,0c0.2,0,0.5,0,0.7,0c0.5,0,1,0,1.4,0.1c0.4,0.1,0.7,0.2,0.9,0.4c0.2,0.2,0.4,0.4,0.5,0.7c0.1,0.3,0.2,0.6,0.2,1
		c0,0.4-0.1,0.8-0.2,1.1c-0.1,0.3-0.3,0.5-0.6,0.7c-0.3,0.2-0.6,0.3-0.9,0.4c0.2,0.4,0.5,0.8,0.7,1.1c0.2,0.3,0.4,0.5,0.6,0.7
		s0.3,0.3,0.5,0.4c0.2,0.1,0.3,0.1,0.4,0.1c0,0,0,0,0.1,0c0,0,0.1,0,0.1,0l0,0.9c0,0-0.1,0-0.1,0S36.6,64.2,36.5,64.2z M33.1,60.4
		c0.4,0,0.7,0,0.9-0.1c0.3-0.1,0.5-0.1,0.6-0.3c0.2-0.1,0.3-0.3,0.4-0.5c0.1-0.2,0.1-0.4,0.1-0.7c0-0.4-0.1-0.7-0.2-0.9
		c-0.1-0.2-0.3-0.4-0.6-0.5s-0.7-0.1-1.2-0.1c-0.1,0-0.3,0-0.4,0s-0.2,0-0.3,0c-0.1,0-0.2,0-0.3,0c-0.1,0-0.2,0-0.4,0v3
		c0.1,0,0.3,0,0.4,0c0.1,0,0.2,0,0.4,0c0.1,0,0.2,0,0.3,0S33,60.4,33.1,60.4z"/>
	<path d="M37.1,64l2.5-7.4h1l2.5,7.4h-1l-0.6-1.9h-2.9L38,64H37.1z M38.8,61.4h2.5l-1.2-3.9L38.8,61.4z"/>
	<path d="M44,64v-7.4h0.9V64H44z"/>
	<path d="M46.4,64v-7.4h0.9l3.9,6v-5.9h0.8v7.4h-0.9l-3.9-5.9V64H46.4z"/>
	<path d="M53.4,64v-7.4h4.7v0.8h-3.7v2.3h3.5v0.8h-3.5v2.6h3.9V64H53.4z"/>
</g>
<g class="st1">
	<path d="M19.2,143.9v-5.1h0.9v5.1c0,0.3,0,0.5,0.1,0.7c0.1,0.2,0.2,0.3,0.3,0.4c0.1,0.1,0.3,0.2,0.4,0.3c0.2,0.1,0.3,0.1,0.5,0.1
		s0.4,0,0.6,0c0.2,0,0.4,0,0.6,0c0.2,0,0.4-0.1,0.5-0.1s0.3-0.2,0.4-0.3s0.2-0.3,0.3-0.4c0.1-0.2,0.1-0.4,0.1-0.6v-5.1h0.9v5.1
		c0,0.4,0,0.7-0.1,0.9c-0.1,0.3-0.2,0.5-0.4,0.7c-0.2,0.2-0.4,0.3-0.6,0.4c-0.2,0.1-0.5,0.2-0.8,0.2c-0.3,0-0.6,0.1-0.9,0.1
		c-0.3,0-0.6,0-0.9-0.1c-0.3,0-0.5-0.1-0.8-0.2c-0.2-0.1-0.4-0.2-0.6-0.4c-0.2-0.2-0.3-0.4-0.4-0.7
		C19.2,144.6,19.2,144.2,19.2,143.9z"/>
	<path d="M30.6,139l-0.2,0.7c-0.1,0-0.3-0.1-0.4-0.1c-0.2,0-0.3-0.1-0.5-0.1c-0.2,0-0.4,0-0.5-0.1c-0.2,0-0.3,0-0.5,0
		c-0.5,0-1,0.1-1.3,0.3c-0.3,0.2-0.5,0.5-0.5,0.9c0,0.2,0,0.3,0.1,0.5c0.1,0.1,0.2,0.3,0.3,0.4c0.2,0.1,0.4,0.2,0.6,0.3
		c0.3,0.1,0.6,0.2,1,0.4c0.4,0.1,0.7,0.3,1,0.4c0.3,0.1,0.5,0.3,0.7,0.5c0.2,0.2,0.3,0.4,0.4,0.6c0.1,0.2,0.1,0.4,0.1,0.7
		c0,0.4-0.1,0.8-0.3,1.1s-0.5,0.5-1,0.7c-0.4,0.2-0.9,0.2-1.5,0.2c-0.2,0-0.4,0-0.6,0c-0.2,0-0.5-0.1-0.7-0.1s-0.5-0.1-0.7-0.1
		c-0.2-0.1-0.4-0.1-0.6-0.2l0.2-0.7c0.2,0.1,0.3,0.1,0.5,0.2c0.2,0,0.4,0.1,0.6,0.1c0.2,0,0.4,0.1,0.6,0.1c0.2,0,0.4,0,0.6,0
		c0.4,0,0.7,0,1-0.1c0.3-0.1,0.5-0.2,0.6-0.4c0.1-0.2,0.2-0.4,0.2-0.6c0-0.2,0-0.3-0.1-0.5c-0.1-0.1-0.2-0.3-0.4-0.4
		c-0.2-0.1-0.4-0.2-0.7-0.3c-0.3-0.1-0.6-0.2-1-0.4c-0.4-0.1-0.7-0.3-1-0.4c-0.3-0.1-0.5-0.3-0.6-0.5s-0.3-0.4-0.4-0.6
		c-0.1-0.2-0.1-0.4-0.1-0.7c0-0.3,0.1-0.6,0.2-0.8c0.1-0.2,0.3-0.5,0.5-0.6s0.5-0.3,0.8-0.4c0.3-0.1,0.7-0.1,1.2-0.1
		c0.3,0,0.5,0,0.8,0s0.5,0.1,0.8,0.1C30.3,138.8,30.5,138.9,30.6,139z"/>
	<path d="M34.3,146.2c-0.2,0-0.4,0-0.6,0c-0.2,0-0.4-0.1-0.6-0.1s-0.4-0.1-0.6-0.1c-0.2,0-0.4-0.1-0.5-0.2l0.2-0.7
		c0.2,0.1,0.4,0.1,0.6,0.2c0.2,0,0.4,0.1,0.6,0.1c0.2,0,0.4,0.1,0.6,0.1c0.2,0,0.4,0,0.5,0c0.6,0,1-0.1,1.3-0.3
		c0.3-0.2,0.4-0.5,0.4-0.8c0-0.2,0-0.4-0.1-0.5c-0.1-0.2-0.2-0.3-0.4-0.4c-0.2-0.1-0.4-0.3-0.6-0.4s-0.5-0.2-0.9-0.4
		c-0.4-0.2-0.8-0.3-1.1-0.6c-0.3-0.2-0.5-0.4-0.7-0.7c-0.1-0.3-0.2-0.6-0.2-1c0-0.4,0.1-0.7,0.3-1c0.2-0.3,0.5-0.5,0.8-0.6
		c0.4-0.1,0.8-0.2,1.3-0.2c0.2,0,0.5,0,0.7,0c0.2,0,0.5,0.1,0.7,0.1c0.2,0,0.4,0.1,0.6,0.2l-0.2,0.7c-0.2-0.1-0.4-0.1-0.6-0.1
		c-0.2,0-0.4-0.1-0.6-0.1c-0.2,0-0.4,0-0.6,0c-0.5,0-0.9,0.1-1.2,0.3c-0.3,0.2-0.4,0.5-0.4,0.8c0,0.2,0,0.4,0.1,0.5
		c0.1,0.2,0.2,0.3,0.3,0.4c0.1,0.1,0.3,0.3,0.6,0.4s0.5,0.2,0.8,0.3c0.5,0.2,0.8,0.3,1.1,0.5c0.3,0.2,0.5,0.4,0.7,0.7
		c0.2,0.3,0.2,0.6,0.2,1c0,0.3-0.1,0.6-0.2,0.8c-0.1,0.2-0.3,0.4-0.5,0.6c-0.2,0.2-0.5,0.3-0.9,0.3
		C35.1,146.2,34.7,146.2,34.3,146.2z M34.2,138.8v-1.1h0.7v1.1L34.2,138.8z M34.2,147.2v-1.1l0.7-0.1v1.2H34.2z"/>
	<path d="M37.9,144.4l0-0.7l3.8-5l0.8,0v4.9h1.2v0.7h-1.2v1.7h-0.9v-1.7H37.9z M38.7,143.7h2.8V140L38.7,143.7z"/>
	<path d="M44.4,145.6c0-0.2,0-0.3,0.1-0.4c0.1-0.1,0.2-0.1,0.4-0.1c0.2,0,0.3,0,0.4,0.1c0.1,0.1,0.1,0.2,0.1,0.4
		c0,0.2,0,0.3-0.1,0.4c-0.1,0.1-0.2,0.1-0.4,0.1c-0.2,0-0.3,0-0.4-0.1C44.4,145.9,44.4,145.8,44.4,145.6z"/>
	<path d="M46.1,145.6l0.3-0.6c0.2,0.1,0.4,0.2,0.7,0.3c0.2,0.1,0.4,0.1,0.7,0.2c0.2,0,0.5,0.1,0.8,0.1c0.4,0,0.8-0.1,1.1-0.2
		c0.3-0.1,0.5-0.3,0.7-0.5c0.2-0.2,0.2-0.5,0.2-0.8c0-0.4-0.2-0.8-0.5-1c-0.3-0.2-0.8-0.3-1.4-0.3h-1.1v-0.7h1.3
		c0.3,0,0.6-0.1,0.8-0.2c0.2-0.1,0.4-0.2,0.5-0.4c0.1-0.2,0.2-0.4,0.2-0.7c0-0.4-0.1-0.7-0.4-0.9s-0.7-0.3-1.3-0.3
		c-0.3,0-0.6,0-1,0.1c-0.3,0.1-0.6,0.2-0.9,0.3l-0.2-0.7c0.2-0.1,0.4-0.2,0.7-0.3c0.2-0.1,0.5-0.1,0.8-0.2c0.3,0,0.6-0.1,0.9-0.1
		c0.5,0,1,0.1,1.3,0.2c0.4,0.2,0.6,0.4,0.8,0.7c0.2,0.3,0.3,0.6,0.3,1c0,0.4-0.1,0.8-0.3,1.1c-0.2,0.3-0.5,0.5-0.9,0.6
		c0.5,0.1,0.9,0.3,1.1,0.6c0.3,0.3,0.4,0.7,0.4,1.1c0,0.5-0.1,0.9-0.3,1.2s-0.6,0.6-1,0.8c-0.4,0.2-0.9,0.3-1.5,0.3
		c-0.3,0-0.7,0-0.9-0.1c-0.3,0-0.6-0.1-0.8-0.2C46.6,145.8,46.4,145.7,46.1,145.6z"/>
	<path d="M52.7,145.5c0.6-0.5,1.1-1,1.5-1.4c0.4-0.4,0.8-0.7,1-1c0.3-0.3,0.5-0.6,0.6-0.8c0.2-0.2,0.3-0.5,0.3-0.7
		c0.1-0.2,0.1-0.4,0.1-0.6c0-0.3-0.1-0.6-0.2-0.8s-0.3-0.4-0.5-0.5c-0.2-0.1-0.5-0.2-0.8-0.2c-0.3,0-0.6,0-0.9,0.1
		c-0.3,0.1-0.6,0.2-0.9,0.4l-0.3-0.7c0.2-0.1,0.4-0.3,0.7-0.4c0.2-0.1,0.5-0.2,0.8-0.2s0.5-0.1,0.8-0.1c0.5,0,0.9,0.1,1.2,0.3
		c0.3,0.2,0.6,0.4,0.8,0.7c0.2,0.3,0.3,0.7,0.3,1.2c0,0.2,0,0.4-0.1,0.7c0,0.2-0.1,0.5-0.3,0.7c-0.1,0.2-0.3,0.5-0.6,0.8
		c-0.2,0.3-0.6,0.6-1,1s-0.9,0.8-1.4,1.3h4v0.7h-5.2L52.7,145.5z"/>
</g>
<g class="st1">
	<path d="M25.7,158.2v-7.6h0.9v2.6c0.3-0.2,0.6-0.4,0.9-0.5c0.3-0.1,0.6-0.1,0.9-0.1c0.6,0,1.1,0.2,1.4,0.7c0.3,0.5,0.5,1.2,0.5,2.1
		c0,0.7-0.1,1.3-0.3,1.8c-0.2,0.5-0.5,0.8-0.9,1c-0.4,0.2-0.9,0.3-1.5,0.3c-0.3,0-0.6,0-0.9-0.1C26.4,158.4,26.1,158.3,25.7,158.2z
		 M26.6,157.7c0.2,0,0.4,0.1,0.6,0.1s0.3,0,0.5,0c0.4,0,0.7-0.1,1-0.2c0.2-0.2,0.4-0.4,0.6-0.8s0.2-0.8,0.2-1.4
		c0-0.5-0.1-0.8-0.2-1.1c-0.1-0.3-0.2-0.5-0.4-0.7c-0.2-0.2-0.4-0.2-0.7-0.2c-0.2,0-0.3,0-0.5,0.1c-0.2,0-0.3,0.1-0.5,0.2
		c-0.2,0.1-0.3,0.2-0.5,0.3V157.7z"/>
	<path d="M31.8,151.6c-0.2,0-0.3,0-0.4-0.1s-0.1-0.2-0.1-0.4c0-0.2,0-0.3,0.1-0.4c0.1-0.1,0.2-0.1,0.4-0.1c0.2,0,0.3,0,0.4,0.1
		c0.1,0.1,0.1,0.2,0.1,0.4c0,0.2,0,0.3-0.1,0.4S32,151.6,31.8,151.6z M31.3,158.4v-5.6h0.9v5.6H31.3z"/>
	<path d="M34.4,150.6v6.2c0,0.2,0,0.4,0.1,0.6c0.1,0.1,0.1,0.2,0.2,0.3c0.1,0,0.2,0.1,0.3,0.1c0.1,0,0.2,0,0.2,0
		c0.1,0,0.2,0,0.3-0.1l0.1,0.7c-0.1,0-0.3,0.1-0.4,0.1s-0.3,0-0.5,0c-0.3,0-0.5,0-0.7-0.1s-0.3-0.3-0.4-0.5s-0.1-0.6-0.1-1v-6.3
		H34.4z"/>
	<path d="M37.1,150.6v6.2c0,0.2,0,0.4,0.1,0.6c0.1,0.1,0.1,0.2,0.2,0.3c0.1,0,0.2,0.1,0.3,0.1c0.1,0,0.2,0,0.2,0
		c0.1,0,0.2,0,0.3-0.1l0.1,0.7c-0.1,0-0.3,0.1-0.4,0.1s-0.3,0-0.5,0c-0.3,0-0.5,0-0.7-0.1s-0.3-0.3-0.4-0.5s-0.1-0.6-0.1-1v-6.3
		H37.1z"/>
	<path d="M39.4,151.6c-0.2,0-0.3,0-0.4-0.1s-0.1-0.2-0.1-0.4c0-0.2,0-0.3,0.1-0.4c0.1-0.1,0.2-0.1,0.4-0.1c0.2,0,0.3,0,0.4,0.1
		c0.1,0.1,0.1,0.2,0.1,0.4c0,0.2,0,0.3-0.1,0.4S39.6,151.6,39.4,151.6z M39,158.4v-5.6h0.9v5.6H39z"/>
	<path d="M40.9,155.6c0-0.5,0-0.9,0.1-1.3s0.2-0.7,0.4-0.9s0.4-0.4,0.8-0.5s0.7-0.2,1.2-0.2c0.5,0,0.9,0.1,1.2,0.2
		c0.3,0.1,0.6,0.3,0.8,0.5s0.3,0.5,0.4,0.9c0.1,0.4,0.1,0.8,0.1,1.3c0,0.5,0,1-0.1,1.3c-0.1,0.4-0.2,0.7-0.4,0.9
		c-0.2,0.2-0.4,0.4-0.8,0.5s-0.7,0.2-1.1,0.2c-0.4,0-0.8-0.1-1.1-0.2s-0.6-0.3-0.8-0.5c-0.2-0.2-0.3-0.5-0.4-0.9
		C40.9,156.5,40.9,156.1,40.9,155.6z M41.8,155.6c0,0.6,0.1,1,0.2,1.3c0.1,0.3,0.3,0.6,0.5,0.7s0.5,0.2,0.9,0.2
		c0.4,0,0.7-0.1,0.9-0.2s0.4-0.4,0.5-0.7s0.2-0.8,0.2-1.3c0-0.5,0-1-0.1-1.3c-0.1-0.3-0.3-0.6-0.5-0.7c-0.2-0.1-0.5-0.2-0.9-0.2
		c-0.4,0-0.7,0.1-0.9,0.2c-0.2,0.1-0.4,0.4-0.5,0.7C41.8,154.6,41.8,155,41.8,155.6z"/>
	<path d="M46.9,158.4v-5.6h0.8v0.5c0.2-0.1,0.5-0.2,0.7-0.3c0.2-0.1,0.4-0.2,0.7-0.2c0.2,0,0.5-0.1,0.7-0.1c0.3,0,0.6,0.1,0.9,0.2
		s0.4,0.3,0.5,0.5c0.1,0.2,0.2,0.5,0.2,0.8v4.2h-0.9v-3.9c0-0.3-0.1-0.6-0.3-0.8c-0.2-0.2-0.4-0.3-0.8-0.3c-0.2,0-0.4,0-0.5,0.1
		c-0.2,0-0.3,0.1-0.5,0.2s-0.3,0.1-0.5,0.2v4.5H46.9z"/>
</g>
<g class="st1">
	<path d="M141,293.9c-0.2,0-0.4,0-0.6,0c-0.2,0-0.4-0.1-0.6-0.1s-0.4-0.1-0.6-0.1c-0.2,0-0.4-0.1-0.5-0.2l0.2-0.7
		c0.2,0.1,0.4,0.1,0.6,0.2c0.2,0,0.4,0.1,0.6,0.1c0.2,0,0.4,0.1,0.6,0.1c0.2,0,0.4,0,0.5,0c0.6,0,1-0.1,1.3-0.3
		c0.3-0.2,0.4-0.5,0.4-0.8c0-0.2,0-0.4-0.1-0.5c-0.1-0.2-0.2-0.3-0.4-0.4c-0.2-0.1-0.4-0.3-0.6-0.4s-0.5-0.2-0.9-0.4
		c-0.4-0.2-0.8-0.3-1.1-0.6c-0.3-0.2-0.5-0.4-0.7-0.7c-0.1-0.3-0.2-0.6-0.2-1c0-0.4,0.1-0.7,0.3-1c0.2-0.3,0.5-0.5,0.8-0.6
		c0.4-0.1,0.8-0.2,1.3-0.2c0.2,0,0.5,0,0.7,0c0.2,0,0.5,0.1,0.7,0.1c0.2,0,0.4,0.1,0.6,0.2l-0.2,0.7c-0.2-0.1-0.4-0.1-0.6-0.1
		c-0.2,0-0.4-0.1-0.6-0.1c-0.2,0-0.4,0-0.6,0c-0.5,0-0.9,0.1-1.2,0.3c-0.3,0.2-0.4,0.5-0.4,0.8c0,0.2,0,0.4,0.1,0.5
		c0.1,0.2,0.2,0.3,0.3,0.4c0.1,0.1,0.3,0.3,0.6,0.4s0.5,0.2,0.8,0.3c0.5,0.2,0.8,0.3,1.1,0.5c0.3,0.2,0.5,0.4,0.7,0.7
		c0.2,0.3,0.2,0.6,0.2,1c0,0.3-0.1,0.6-0.2,0.8c-0.1,0.2-0.3,0.4-0.5,0.6c-0.2,0.2-0.5,0.3-0.9,0.3
		C141.8,293.9,141.4,293.9,141,293.9z M141,286.5v-1.1h0.7v1.1L141,286.5z M141,294.9v-1.1l0.7-0.1v1.2H141z"/>
	<path d="M145,291.6v-5.1h0.9v5.1c0,0.3,0,0.5,0.1,0.7c0.1,0.2,0.2,0.3,0.3,0.4c0.1,0.1,0.3,0.2,0.4,0.3c0.2,0.1,0.3,0.1,0.5,0.1
		s0.4,0,0.6,0c0.2,0,0.4,0,0.6,0c0.2,0,0.4-0.1,0.5-0.1s0.3-0.2,0.4-0.3s0.2-0.3,0.3-0.4c0.1-0.2,0.1-0.4,0.1-0.6v-5.1h0.9v5.1
		c0,0.4,0,0.7-0.1,0.9c-0.1,0.3-0.2,0.5-0.4,0.7s-0.4,0.3-0.6,0.4c-0.2,0.1-0.5,0.2-0.8,0.2c-0.3,0-0.6,0.1-0.9,0.1
		c-0.3,0-0.6,0-0.9-0.1c-0.3,0-0.5-0.1-0.8-0.2c-0.2-0.1-0.4-0.2-0.6-0.4c-0.2-0.2-0.3-0.4-0.4-0.7C145,292.2,145,291.9,145,291.6z"
		/>
	<path d="M156.4,286.6l-0.2,0.7c-0.1,0-0.3-0.1-0.4-0.1c-0.2,0-0.3-0.1-0.5-0.1c-0.2,0-0.3,0-0.5-0.1c-0.2,0-0.3,0-0.5,0
		c-0.5,0-1,0.1-1.3,0.3c-0.3,0.2-0.5,0.5-0.5,0.9c0,0.2,0,0.3,0.1,0.5c0.1,0.1,0.2,0.3,0.3,0.4c0.2,0.1,0.4,0.2,0.6,0.3
		c0.3,0.1,0.6,0.2,1,0.4c0.4,0.1,0.7,0.3,1,0.4c0.3,0.1,0.5,0.3,0.7,0.5c0.2,0.2,0.3,0.4,0.4,0.6c0.1,0.2,0.1,0.4,0.1,0.7
		c0,0.4-0.1,0.8-0.3,1.1s-0.5,0.5-1,0.7c-0.4,0.2-0.9,0.2-1.5,0.2c-0.2,0-0.4,0-0.6,0c-0.2,0-0.5-0.1-0.7-0.1
		c-0.2,0-0.5-0.1-0.7-0.1s-0.4-0.1-0.6-0.2l0.2-0.7c0.2,0.1,0.3,0.1,0.5,0.2c0.2,0,0.4,0.1,0.6,0.1c0.2,0,0.4,0.1,0.6,0.1
		c0.2,0,0.4,0,0.6,0c0.4,0,0.7,0,1-0.1c0.3-0.1,0.5-0.2,0.6-0.4c0.1-0.2,0.2-0.4,0.2-0.6c0-0.2,0-0.3-0.1-0.5
		c-0.1-0.1-0.2-0.3-0.4-0.4c-0.2-0.1-0.4-0.2-0.7-0.3c-0.3-0.1-0.6-0.2-1-0.4c-0.4-0.1-0.7-0.3-1-0.4c-0.3-0.1-0.5-0.3-0.6-0.5
		c-0.2-0.2-0.3-0.4-0.4-0.6c-0.1-0.2-0.1-0.4-0.1-0.7c0-0.3,0.1-0.6,0.2-0.8c0.1-0.2,0.3-0.5,0.5-0.6s0.5-0.3,0.8-0.4
		c0.3-0.1,0.7-0.1,1.2-0.1c0.3,0,0.5,0,0.8,0s0.5,0.1,0.8,0.1C156.1,286.5,156.3,286.6,156.4,286.6z"/>
	<path d="M160.4,293.9c-0.6,0-1.2-0.1-1.6-0.4c-0.4-0.2-0.8-0.6-1-1.2s-0.3-1.2-0.3-2.1c0-0.9,0.1-1.7,0.4-2.2s0.6-1,1.1-1.3
		c0.5-0.3,1-0.4,1.7-0.4c0.3,0,0.5,0,0.8,0c0.3,0,0.5,0.1,0.7,0.1s0.5,0.1,0.7,0.2l-0.2,0.7c-0.2-0.1-0.4-0.1-0.6-0.2
		c-0.2-0.1-0.4-0.1-0.6-0.1s-0.4,0-0.6,0c-0.5,0-1,0.1-1.3,0.3c-0.3,0.2-0.6,0.6-0.8,1c-0.2,0.5-0.2,1-0.2,1.7c0,0.5,0,1,0.1,1.4
		c0.1,0.4,0.2,0.7,0.4,0.9s0.4,0.4,0.6,0.5c0.2,0.1,0.5,0.2,0.9,0.2c0.6,0,1-0.1,1.3-0.4c0.3-0.3,0.5-0.7,0.5-1.2
		c0-0.3-0.1-0.6-0.2-0.8s-0.3-0.4-0.6-0.5c-0.3-0.1-0.6-0.2-0.9-0.2c-0.3,0-0.6,0-0.8,0.1c-0.3,0.1-0.5,0.2-0.7,0.3
		c-0.2,0.1-0.4,0.3-0.6,0.5l-0.1-0.7c0.2-0.2,0.4-0.4,0.7-0.5c0.3-0.1,0.5-0.3,0.9-0.3c0.3-0.1,0.6-0.1,1-0.1c0.5,0,0.9,0.1,1.2,0.3
		s0.6,0.4,0.8,0.7c0.2,0.3,0.3,0.7,0.3,1.2c0,0.8-0.2,1.4-0.7,1.8C161.9,293.7,161.2,293.9,160.4,293.9z"/>
	<path d="M163.7,290.1c0-0.7,0.1-1.3,0.2-1.8s0.3-0.9,0.6-1.2c0.3-0.3,0.6-0.5,0.9-0.6c0.3-0.1,0.7-0.2,1.2-0.2s0.8,0.1,1.2,0.2
		c0.3,0.1,0.6,0.3,0.9,0.6s0.4,0.7,0.6,1.2c0.1,0.5,0.2,1.1,0.2,1.8c0,0.7-0.1,1.3-0.2,1.8c-0.1,0.5-0.3,0.9-0.6,1.2
		s-0.5,0.5-0.9,0.6c-0.3,0.1-0.7,0.2-1.1,0.2c-0.4,0-0.8-0.1-1.2-0.2c-0.3-0.1-0.6-0.3-0.9-0.6s-0.4-0.7-0.6-1.2
		C163.8,291.4,163.7,290.8,163.7,290.1z M164.6,290.1c0,0.6,0,1.1,0.1,1.5s0.2,0.7,0.4,0.9c0.2,0.2,0.4,0.4,0.6,0.5
		c0.2,0.1,0.5,0.1,0.8,0.1s0.5,0,0.8-0.1c0.2-0.1,0.4-0.2,0.6-0.5c0.2-0.2,0.3-0.5,0.4-0.9s0.1-0.9,0.1-1.5c0-0.6,0-1.1-0.1-1.5
		s-0.2-0.7-0.4-0.9c-0.2-0.2-0.4-0.4-0.6-0.5c-0.2-0.1-0.5-0.1-0.8-0.1s-0.5,0-0.8,0.1s-0.4,0.2-0.6,0.5c-0.2,0.2-0.3,0.5-0.4,0.9
		S164.6,289.5,164.6,290.1z"/>
	<path d="M170.1,293.3c0-0.2,0-0.3,0.1-0.4c0.1-0.1,0.2-0.1,0.4-0.1c0.2,0,0.3,0,0.4,0.1c0.1,0.1,0.1,0.2,0.1,0.4
		c0,0.2,0,0.3-0.1,0.4c-0.1,0.1-0.2,0.1-0.4,0.1c-0.2,0-0.3,0-0.4-0.1C170.2,293.6,170.1,293.5,170.1,293.3z"/>
	<path d="M174.9,293.9c-0.6,0-1.2-0.1-1.6-0.4c-0.4-0.2-0.8-0.6-1-1.2c-0.2-0.5-0.3-1.2-0.3-2.1c0-0.9,0.1-1.7,0.4-2.2
		c0.2-0.6,0.6-1,1.1-1.3c0.5-0.3,1-0.4,1.7-0.4c0.3,0,0.5,0,0.8,0c0.3,0,0.5,0.1,0.7,0.1s0.5,0.1,0.7,0.2l-0.2,0.7
		c-0.2-0.1-0.4-0.1-0.6-0.2c-0.2-0.1-0.4-0.1-0.6-0.1s-0.4,0-0.6,0c-0.5,0-1,0.1-1.3,0.3c-0.3,0.2-0.6,0.6-0.8,1
		c-0.2,0.5-0.2,1-0.2,1.7c0,0.5,0,1,0.1,1.4c0.1,0.4,0.2,0.7,0.4,0.9s0.4,0.4,0.6,0.5c0.2,0.1,0.5,0.2,0.9,0.2c0.6,0,1-0.1,1.3-0.4
		c0.3-0.3,0.5-0.7,0.5-1.2c0-0.3-0.1-0.6-0.2-0.8c-0.1-0.2-0.3-0.4-0.6-0.5c-0.3-0.1-0.6-0.2-0.9-0.2c-0.3,0-0.6,0-0.8,0.1
		c-0.3,0.1-0.5,0.2-0.7,0.3c-0.2,0.1-0.4,0.3-0.6,0.5l-0.1-0.7c0.2-0.2,0.4-0.4,0.7-0.5c0.3-0.1,0.5-0.3,0.9-0.3
		c0.3-0.1,0.6-0.1,1-0.1c0.5,0,0.9,0.1,1.2,0.3c0.3,0.2,0.6,0.4,0.8,0.7c0.2,0.3,0.3,0.7,0.3,1.2c0,0.8-0.2,1.4-0.7,1.8
		S175.7,293.9,174.9,293.9z"/>
	<path d="M181.4,293.6V286h0.9v2.6c0.3-0.2,0.6-0.4,0.9-0.5c0.3-0.1,0.6-0.1,0.9-0.1c0.6,0,1.1,0.2,1.4,0.7c0.3,0.5,0.5,1.2,0.5,2.1
		c0,0.7-0.1,1.3-0.3,1.8c-0.2,0.5-0.5,0.8-0.9,1c-0.4,0.2-0.9,0.3-1.5,0.3c-0.3,0-0.6,0-0.9-0.1
		C182.1,293.8,181.8,293.7,181.4,293.6z M182.3,293.1c0.2,0,0.4,0.1,0.6,0.1s0.3,0,0.5,0c0.4,0,0.7-0.1,1-0.2
		c0.2-0.2,0.4-0.4,0.6-0.8c0.1-0.3,0.2-0.8,0.2-1.4c0-0.5-0.1-0.8-0.2-1.1c-0.1-0.3-0.2-0.5-0.4-0.7c-0.2-0.2-0.4-0.2-0.7-0.2
		c-0.2,0-0.3,0-0.5,0.1c-0.2,0-0.3,0.1-0.5,0.2c-0.2,0.1-0.3,0.2-0.5,0.3V293.1z"/>
	<path d="M187.5,287c-0.2,0-0.3,0-0.4-0.1s-0.1-0.2-0.1-0.4c0-0.2,0-0.3,0.1-0.4c0.1-0.1,0.2-0.1,0.4-0.1c0.2,0,0.3,0,0.4,0.1
		c0.1,0.1,0.1,0.2,0.1,0.4c0,0.2,0,0.3-0.1,0.4S187.7,287,187.5,287z M187,293.8v-5.6h0.9v5.6H187z"/>
	<path d="M190.1,286v6.2c0,0.2,0,0.4,0.1,0.6c0.1,0.1,0.1,0.2,0.2,0.3c0.1,0,0.2,0.1,0.3,0.1c0.1,0,0.2,0,0.2,0c0.1,0,0.2,0,0.3-0.1
		l0.1,0.7c-0.1,0-0.3,0.1-0.4,0.1c-0.1,0-0.3,0-0.5,0c-0.3,0-0.5,0-0.7-0.1s-0.3-0.3-0.4-0.5s-0.1-0.6-0.1-1V286H190.1z"/>
	<path d="M192.8,286v6.2c0,0.2,0,0.4,0.1,0.6c0.1,0.1,0.1,0.2,0.2,0.3c0.1,0,0.2,0.1,0.3,0.1c0.1,0,0.2,0,0.2,0c0.1,0,0.2,0,0.3-0.1
		l0.1,0.7c-0.1,0-0.3,0.1-0.4,0.1c-0.1,0-0.3,0-0.5,0c-0.3,0-0.5,0-0.7-0.1s-0.3-0.3-0.4-0.5s-0.1-0.6-0.1-1V286H192.8z"/>
	<path d="M195.1,287c-0.2,0-0.3,0-0.4-0.1s-0.1-0.2-0.1-0.4c0-0.2,0-0.3,0.1-0.4c0.1-0.1,0.2-0.1,0.4-0.1c0.2,0,0.3,0,0.4,0.1
		c0.1,0.1,0.1,0.2,0.1,0.4c0,0.2,0,0.3-0.1,0.4C195.4,287,195.3,287,195.1,287z M194.6,293.8v-5.6h0.9v5.6H194.6z"/>
	<path d="M196.6,291c0-0.5,0-0.9,0.1-1.3s0.2-0.7,0.4-0.9s0.4-0.4,0.8-0.5c0.3-0.1,0.7-0.2,1.2-0.2c0.5,0,0.9,0.1,1.2,0.2
		c0.3,0.1,0.6,0.3,0.8,0.5s0.3,0.5,0.4,0.9s0.1,0.8,0.1,1.3c0,0.5,0,1-0.1,1.3c-0.1,0.4-0.2,0.7-0.4,0.9c-0.2,0.2-0.4,0.4-0.8,0.5
		s-0.7,0.2-1.1,0.2c-0.4,0-0.8-0.1-1.1-0.2s-0.6-0.3-0.8-0.5c-0.2-0.2-0.3-0.5-0.4-0.9C196.6,291.9,196.6,291.5,196.6,291z
		 M197.5,291c0,0.6,0.1,1,0.2,1.3c0.1,0.3,0.3,0.6,0.5,0.7s0.5,0.2,0.9,0.2c0.4,0,0.7-0.1,0.9-0.2s0.4-0.4,0.5-0.7s0.2-0.8,0.2-1.3
		c0-0.5,0-1-0.1-1.3c-0.1-0.3-0.3-0.6-0.5-0.7s-0.5-0.2-0.9-0.2c-0.4,0-0.7,0.1-0.9,0.2c-0.2,0.1-0.4,0.4-0.5,0.7
		C197.5,290,197.5,290.4,197.5,291z"/>
	<path d="M202.6,293.8v-5.6h0.8v0.5c0.2-0.1,0.5-0.2,0.7-0.3c0.2-0.1,0.4-0.2,0.7-0.2c0.2,0,0.5-0.1,0.7-0.1c0.3,0,0.6,0.1,0.9,0.2
		c0.2,0.1,0.4,0.3,0.5,0.5c0.1,0.2,0.2,0.5,0.2,0.8v4.2h-0.9v-3.9c0-0.3-0.1-0.6-0.3-0.8s-0.4-0.3-0.8-0.3c-0.2,0-0.4,0-0.5,0.1
		c-0.2,0-0.3,0.1-0.5,0.2s-0.3,0.1-0.5,0.2v4.5H202.6z"/>
</g>
<g class="st1">
	<path d="M162.4,64.2c-0.2,0-0.4,0-0.5-0.1c-0.2-0.1-0.4-0.2-0.6-0.3c-0.2-0.1-0.4-0.3-0.6-0.6c-0.2-0.2-0.4-0.5-0.6-0.8
		c-0.2-0.3-0.5-0.7-0.7-1.1c-0.1,0-0.2,0-0.3,0c-0.1,0-0.2,0-0.3,0c-0.2,0-0.4,0-0.6,0c-0.2,0-0.4,0-0.6,0V64h-0.9v-7.4
		c0.3,0,0.6,0,0.8,0c0.3,0,0.5,0,0.7,0c0.2,0,0.5,0,0.7,0c0.5,0,1,0,1.4,0.1c0.4,0.1,0.7,0.2,0.9,0.4c0.2,0.2,0.4,0.4,0.5,0.7
		c0.1,0.3,0.2,0.6,0.2,1c0,0.4-0.1,0.8-0.2,1.1c-0.1,0.3-0.3,0.5-0.6,0.7s-0.6,0.3-0.9,0.4c0.2,0.4,0.5,0.8,0.7,1.1s0.4,0.5,0.6,0.7
		s0.3,0.3,0.5,0.4s0.3,0.1,0.4,0.1c0,0,0,0,0.1,0s0.1,0,0.1,0l0,0.9c0,0-0.1,0-0.1,0S162.5,64.2,162.4,64.2z M159,60.4
		c0.4,0,0.7,0,0.9-0.1c0.3-0.1,0.5-0.1,0.6-0.3c0.2-0.1,0.3-0.3,0.4-0.5c0.1-0.2,0.1-0.4,0.1-0.7c0-0.4-0.1-0.7-0.2-0.9
		c-0.1-0.2-0.3-0.4-0.6-0.5s-0.7-0.1-1.2-0.1c-0.1,0-0.3,0-0.4,0c-0.1,0-0.2,0-0.3,0s-0.2,0-0.3,0c-0.1,0-0.2,0-0.4,0v3
		c0.1,0,0.3,0,0.4,0c0.1,0,0.2,0,0.4,0c0.1,0,0.2,0,0.3,0S158.9,60.4,159,60.4z"/>
	<path d="M163.2,61.8v-5.1h0.9v5.1c0,0.3,0,0.5,0.1,0.7c0.1,0.2,0.2,0.3,0.3,0.4c0.1,0.1,0.3,0.2,0.4,0.3c0.2,0.1,0.3,0.1,0.5,0.1
		s0.4,0,0.6,0c0.2,0,0.4,0,0.6,0c0.2,0,0.4-0.1,0.5-0.1c0.2-0.1,0.3-0.2,0.4-0.3c0.1-0.1,0.2-0.3,0.3-0.4s0.1-0.4,0.1-0.6v-5.1h0.9
		v5.1c0,0.4,0,0.7-0.1,0.9c-0.1,0.3-0.2,0.5-0.4,0.7c-0.2,0.2-0.4,0.3-0.6,0.4c-0.2,0.1-0.5,0.2-0.8,0.2c-0.3,0-0.6,0.1-0.9,0.1
		c-0.3,0-0.6,0-0.9-0.1c-0.3,0-0.5-0.1-0.8-0.2c-0.2-0.1-0.4-0.2-0.6-0.4c-0.2-0.2-0.3-0.4-0.4-0.7
		C163.3,62.5,163.2,62.2,163.2,61.8z"/>
	<path d="M174.7,56.9l-0.2,0.7c-0.1,0-0.3-0.1-0.4-0.1c-0.2,0-0.3-0.1-0.5-0.1c-0.2,0-0.4,0-0.5-0.1c-0.2,0-0.3,0-0.5,0
		c-0.5,0-1,0.1-1.3,0.3c-0.3,0.2-0.5,0.5-0.5,0.9c0,0.2,0,0.3,0.1,0.5c0.1,0.1,0.2,0.3,0.3,0.4c0.2,0.1,0.4,0.2,0.6,0.3
		c0.3,0.1,0.6,0.2,1,0.4c0.4,0.1,0.7,0.3,1,0.4c0.3,0.1,0.5,0.3,0.7,0.5c0.2,0.2,0.3,0.4,0.4,0.6c0.1,0.2,0.1,0.4,0.1,0.7
		c0,0.4-0.1,0.8-0.3,1.1s-0.5,0.5-1,0.7c-0.4,0.2-0.9,0.2-1.5,0.2c-0.2,0-0.4,0-0.6,0c-0.2,0-0.5-0.1-0.7-0.1
		c-0.2,0-0.5-0.1-0.7-0.1c-0.2-0.1-0.4-0.1-0.6-0.2l0.2-0.7c0.2,0.1,0.3,0.1,0.5,0.2c0.2,0,0.4,0.1,0.6,0.1c0.2,0,0.4,0.1,0.6,0.1
		c0.2,0,0.4,0,0.6,0c0.4,0,0.7,0,1-0.1c0.3-0.1,0.5-0.2,0.6-0.4s0.2-0.4,0.2-0.6c0-0.2,0-0.3-0.1-0.5c-0.1-0.1-0.2-0.3-0.4-0.4
		c-0.2-0.1-0.4-0.2-0.7-0.3c-0.3-0.1-0.6-0.2-1-0.4c-0.4-0.1-0.7-0.3-1-0.4c-0.3-0.1-0.5-0.3-0.6-0.5c-0.2-0.2-0.3-0.4-0.4-0.6
		c-0.1-0.2-0.1-0.4-0.1-0.7c0-0.3,0.1-0.6,0.2-0.8c0.1-0.2,0.3-0.5,0.5-0.6s0.5-0.3,0.8-0.4s0.7-0.1,1.2-0.1c0.3,0,0.5,0,0.8,0
		s0.5,0.1,0.8,0.1C174.4,56.8,174.6,56.9,174.7,56.9z"/>
	<path d="M180.6,56.9l-0.2,0.7c-0.1,0-0.3-0.1-0.4-0.1c-0.2,0-0.3-0.1-0.5-0.1c-0.2,0-0.3,0-0.5-0.1c-0.2,0-0.3,0-0.5,0
		c-0.5,0-1,0.1-1.3,0.3c-0.3,0.2-0.5,0.5-0.5,0.9c0,0.2,0,0.3,0.1,0.5c0.1,0.1,0.2,0.3,0.3,0.4c0.2,0.1,0.4,0.2,0.6,0.3
		c0.3,0.1,0.6,0.2,1,0.4c0.4,0.1,0.7,0.3,1,0.4c0.3,0.1,0.5,0.3,0.7,0.5c0.2,0.2,0.3,0.4,0.4,0.6c0.1,0.2,0.1,0.4,0.1,0.7
		c0,0.4-0.1,0.8-0.3,1.1s-0.5,0.5-1,0.7c-0.4,0.2-0.9,0.2-1.5,0.2c-0.2,0-0.4,0-0.6,0c-0.2,0-0.5-0.1-0.7-0.1
		c-0.2,0-0.5-0.1-0.7-0.1s-0.4-0.1-0.6-0.2l0.2-0.7c0.2,0.1,0.3,0.1,0.5,0.2c0.2,0,0.4,0.1,0.6,0.1c0.2,0,0.4,0.1,0.6,0.1
		c0.2,0,0.4,0,0.6,0c0.4,0,0.7,0,1-0.1c0.3-0.1,0.5-0.2,0.6-0.4c0.1-0.2,0.2-0.4,0.2-0.6c0-0.2,0-0.3-0.1-0.5
		c-0.1-0.1-0.2-0.3-0.4-0.4c-0.2-0.1-0.4-0.2-0.7-0.3c-0.3-0.1-0.6-0.2-1-0.4c-0.4-0.1-0.7-0.3-1-0.4c-0.3-0.1-0.5-0.3-0.6-0.5
		c-0.2-0.2-0.3-0.4-0.4-0.6c-0.1-0.2-0.1-0.4-0.1-0.7c0-0.3,0.1-0.6,0.2-0.8c0.1-0.2,0.3-0.5,0.5-0.6s0.5-0.3,0.8-0.4
		c0.3-0.1,0.7-0.1,1.2-0.1c0.3,0,0.5,0,0.8,0s0.5,0.1,0.8,0.1C180.2,56.8,180.4,56.9,180.6,56.9z"/>
	<path d="M182,64v-7.4h0.9V64H182z"/>
	<path d="M183.8,64l2.5-7.4h1l2.5,7.4h-1l-0.6-1.9h-2.9l-0.6,1.9H183.8z M185.6,61.4h2.5l-1.2-3.9L185.6,61.4z"/>
</g>
</svg>
