<?xml version="1.0" encoding="utf-8"?>
<!-- Generator: Adobe Illustrator 26.2.1, SVG Export Plug-In . SVG Version: 6.00 Build 0)  -->
<svg version="1.1" id="Layer_1" xmlns="http://www.w3.org/2000/svg" xmlns:xlink="http://www.w3.org/1999/xlink" x="0px" y="0px"
	 viewBox="0 0 297.6 312.8" style="enable-background:new 0 0 297.6 312.8;" xml:space="preserve">
<style type="text/css">
	.st0{fill:#69CEF6;}
	.st1{enable-background:new    ;}
</style>
<path class="st0" d="M37.6,103.7V77.1c14.7,0,26.6,11.9,26.6,26.6s-11.9,26.6-26.6,26.6S11,118.4,11,103.7s11.9-26.6,26.6-26.6
	V103.7z"/>
<path class="st0" d="M172.9,176.8V77.1c55.1,0,99.7,44.6,99.7,99.7s-44.6,99.7-99.7,99.7s-99.7-44.6-99.7-99.7s44.6-99.7,99.7-99.7
	L172.9,176.8L172.9,176.8z"/>
<g class="st1">
	<path d="M17.3,61.8v-5.1h0.9v5.1c0,0.3,0,0.5,0.1,0.7s0.2,0.3,0.3,0.4c0.1,0.1,0.3,0.2,0.4,0.3c0.2,0.1,0.3,0.1,0.5,0.1
		s0.4,0,0.6,0s0.4,0,0.6,0s0.4-0.1,0.5-0.1s0.3-0.2,0.4-0.3s0.2-0.3,0.3-0.4c0.1-0.2,0.1-0.4,0.1-0.6v-5.1h0.9v5.1
		c0,0.4,0,0.7-0.1,0.9c-0.1,0.3-0.2,0.5-0.4,0.7c-0.2,0.2-0.4,0.3-0.6,0.4C21.5,64,21.3,64,21,64.1c-0.3,0-0.6,0.1-0.9,0.1
		s-0.6,0-0.9-0.1c-0.3,0-0.5-0.1-0.8-0.2c-0.2-0.1-0.4-0.2-0.6-0.4s-0.3-0.4-0.4-0.7C17.3,62.5,17.3,62.2,17.3,61.8z"/>
	<path d="M29.7,64.2c-0.2,0-0.4,0-0.6-0.1s-0.4-0.2-0.6-0.3s-0.5-0.4-0.7-0.6l-2.6-2.5V64h-0.9v-7.4h0.9v2.7l2.9,2.8
		c0.2,0.2,0.4,0.4,0.6,0.5s0.3,0.2,0.4,0.3s0.2,0.1,0.4,0.2c0.1,0,0.2,0,0.3,0c0,0,0,0,0.1,0s0.1,0,0.1,0V64
		C29.9,64.1,29.8,64.1,29.7,64.2C29.8,64.1,29.7,64.2,29.7,64.2z M26.4,60.9l-0.6-0.5c0.2-0.1,0.4-0.3,0.6-0.5s0.5-0.4,0.7-0.6
		c0.2-0.2,0.5-0.5,0.7-0.7c0.2-0.3,0.4-0.6,0.6-0.9c0.2-0.3,0.4-0.6,0.5-1l0.7,0.3c-0.2,0.4-0.4,0.9-0.6,1.2
		c-0.3,0.4-0.5,0.7-0.8,1.1c-0.3,0.3-0.6,0.6-0.9,0.9S26.7,60.7,26.4,60.9z"/>
	<path d="M36.5,64.2c-0.2,0-0.4,0-0.5-0.1c-0.2-0.1-0.4-0.2-0.6-0.3c-0.2-0.1-0.4-0.3-0.6-0.6c-0.2-0.2-0.4-0.5-0.6-0.8
		s-0.5-0.7-0.7-1.1c-0.1,0-0.2,0-0.3,0s-0.2,0-0.3,0c-0.2,0-0.4,0-0.6,0c-0.2,0-0.4,0-0.6,0V64h-0.9v-7.4c0.3,0,0.6,0,0.9,0
		c0.3,0,0.5,0,0.7,0s0.5,0,0.7,0c0.5,0,1,0,1.4,0.1s0.7,0.2,0.9,0.4s0.4,0.4,0.5,0.7s0.2,0.6,0.2,1s-0.1,0.8-0.2,1.1
		c-0.1,0.3-0.3,0.5-0.6,0.7s-0.6,0.3-0.9,0.4c0.2,0.4,0.5,0.8,0.7,1.1s0.4,0.5,0.6,0.7s0.3,0.3,0.5,0.4c0.2,0.1,0.3,0.1,0.4,0.1
		c0,0,0,0,0.1,0h0.1v0.9h-0.1C36.7,64.2,36.6,64.2,36.5,64.2z M33.1,60.4c0.4,0,0.7,0,0.9-0.1c0.3-0.1,0.5-0.1,0.6-0.3
		c0.2-0.1,0.3-0.3,0.4-0.5c0.1-0.2,0.1-0.4,0.1-0.7c0-0.4-0.1-0.7-0.2-0.9c-0.1-0.2-0.3-0.4-0.6-0.5s-0.7-0.1-1.2-0.1
		c-0.1,0-0.3,0-0.4,0s-0.2,0-0.3,0s-0.2,0-0.3,0c-0.1,0-0.2,0-0.4,0v3c0.1,0,0.3,0,0.4,0c0.1,0,0.2,0,0.4,0c0.1,0,0.2,0,0.3,0
		S33,60.4,33.1,60.4z"/>
	<path d="M37.1,64l2.5-7.4h1l2.5,7.4h-1l-0.6-1.9h-2.9L38,64H37.1z M38.8,61.4h2.5l-1.2-3.9L38.8,61.4z"/>
	<path d="M44,64v-7.4h0.9V64H44z"/>
	<path d="M46.4,64v-7.4h0.9l3.9,6v-5.9H52v7.4h-0.9l-3.9-5.9V64H46.4z"/>
	<path d="M53.4,64v-7.4h4.7v0.8h-3.7v2.3h3.5v0.8h-3.5v2.6h3.9V64H53.4z"/>
</g>
<g class="st1">
	<path d="M19.2,143.9v-5.1h0.9v5.1c0,0.3,0,0.5,0.1,0.7s0.2,0.3,0.3,0.4c0.1,0.1,0.3,0.2,0.4,0.3c0.2,0.1,0.3,0.1,0.5,0.1
		s0.4,0,0.6,0s0.4,0,0.6,0s0.4-0.1,0.5-0.1s0.3-0.2,0.4-0.3s0.2-0.3,0.3-0.4c0.1-0.2,0.1-0.4,0.1-0.6v-5.1h0.9v5.1
		c0,0.4,0,0.7-0.1,0.9c-0.1,0.3-0.2,0.5-0.4,0.7c-0.2,0.2-0.4,0.3-0.6,0.4c-0.2,0.1-0.5,0.2-0.8,0.2s-0.6,0.1-0.9,0.1
		s-0.6,0-0.9-0.1c-0.3,0-0.5-0.1-0.8-0.2c-0.2-0.1-0.4-0.2-0.6-0.4s-0.3-0.4-0.4-0.7C19.2,144.6,19.2,144.2,19.2,143.9z"/>
	<path d="M30.6,139l-0.2,0.7c-0.1,0-0.3-0.1-0.4-0.1c-0.2,0-0.3-0.1-0.5-0.1s-0.4,0-0.5-0.1c-0.2,0-0.3,0-0.5,0
		c-0.5,0-1,0.1-1.3,0.3s-0.5,0.5-0.5,0.9c0,0.2,0,0.3,0.1,0.5c0.1,0.1,0.2,0.3,0.3,0.4c0.2,0.1,0.4,0.2,0.6,0.3
		c0.3,0.1,0.6,0.2,1,0.4c0.4,0.1,0.7,0.3,1,0.4c0.3,0.1,0.5,0.3,0.7,0.5s0.3,0.4,0.4,0.6c0.1,0.2,0.1,0.4,0.1,0.7
		c0,0.4-0.1,0.8-0.3,1.1s-0.5,0.5-1,0.7c-0.4,0.2-0.9,0.2-1.5,0.2c-0.2,0-0.4,0-0.6,0s-0.5-0.1-0.7-0.1s-0.5-0.1-0.7-0.1
		c-0.2-0.1-0.4-0.1-0.6-0.2l0.2-0.7c0.2,0.1,0.3,0.1,0.5,0.2c0.2,0,0.4,0.1,0.6,0.1s0.4,0.1,0.6,0.1s0.4,0,0.6,0c0.4,0,0.7,0,1-0.1
		s0.5-0.2,0.6-0.4s0.2-0.4,0.2-0.6c0-0.2,0-0.3-0.1-0.5c-0.1-0.1-0.2-0.3-0.4-0.4c-0.2-0.1-0.4-0.2-0.7-0.3c-0.3-0.1-0.6-0.2-1-0.4
		c-0.4-0.1-0.7-0.3-1-0.4c-0.3-0.1-0.5-0.3-0.6-0.5s-0.3-0.4-0.4-0.6c-0.1-0.2-0.1-0.4-0.1-0.7s0.1-0.6,0.2-0.8s0.3-0.5,0.5-0.6
		s0.5-0.3,0.8-0.4c0.3-0.1,0.7-0.1,1.2-0.1c0.3,0,0.5,0,0.8,0s0.5,0.1,0.8,0.1C30.3,138.8,30.5,138.9,30.6,139z"/>
	<path d="M34.3,146.2c-0.2,0-0.4,0-0.6,0c-0.2,0-0.4-0.1-0.6-0.1s-0.4-0.1-0.6-0.1c-0.2,0-0.4-0.1-0.5-0.2l0.2-0.7
		c0.2,0.1,0.4,0.1,0.6,0.2c0.2,0,0.4,0.1,0.6,0.1c0.2,0,0.4,0.1,0.6,0.1c0.2,0,0.4,0,0.5,0c0.6,0,1-0.1,1.3-0.3s0.4-0.5,0.4-0.8
		c0-0.2,0-0.4-0.1-0.5c-0.1-0.2-0.2-0.3-0.4-0.4c-0.2-0.1-0.4-0.3-0.6-0.4s-0.5-0.2-0.9-0.4s-0.8-0.3-1.1-0.6
		c-0.3-0.2-0.5-0.4-0.7-0.7c-0.1-0.3-0.2-0.6-0.2-1s0.1-0.7,0.3-1s0.5-0.5,0.8-0.6c0.4-0.1,0.8-0.2,1.3-0.2c0.2,0,0.5,0,0.7,0
		s0.5,0.1,0.7,0.1s0.4,0.1,0.6,0.2l-0.2,0.7c-0.2-0.1-0.4-0.1-0.6-0.1c-0.2,0-0.4-0.1-0.6-0.1c-0.2,0-0.4,0-0.6,0
		c-0.5,0-0.9,0.1-1.2,0.3s-0.4,0.5-0.4,0.8c0,0.2,0,0.4,0.1,0.5c0.1,0.2,0.2,0.3,0.3,0.4c0.1,0.1,0.3,0.3,0.6,0.4s0.5,0.2,0.8,0.3
		c0.5,0.2,0.8,0.3,1.1,0.5s0.5,0.4,0.7,0.7s0.2,0.6,0.2,1c0,0.3-0.1,0.6-0.2,0.8c-0.1,0.2-0.3,0.4-0.5,0.6c-0.2,0.2-0.5,0.3-0.9,0.3
		C35.1,146.2,34.7,146.2,34.3,146.2z M34.2,138.8v-1.1h0.7v1.1H34.2z M34.2,147.2v-1.1l0.7-0.1v1.2L34.2,147.2L34.2,147.2z"/>
	<path d="M37.9,144.4v-0.7l3.8-5h0.8v4.9h1.2v0.7h-1.2v1.7h-0.9v-1.7h-3.7V144.4z M38.7,143.7h2.8V140L38.7,143.7z"/>
	<path d="M44.4,145.6c0-0.2,0-0.3,0.1-0.4c0.1-0.1,0.2-0.1,0.4-0.1s0.3,0,0.4,0.1c0.1,0.1,0.1,0.2,0.1,0.4s0,0.3-0.1,0.4
		c-0.1,0.1-0.2,0.1-0.4,0.1s-0.3,0-0.4-0.1C44.4,145.9,44.4,145.8,44.4,145.6z"/>
	<path d="M46.1,145.6l0.3-0.6c0.2,0.1,0.4,0.2,0.7,0.3c0.2,0.1,0.4,0.1,0.7,0.2c0.2,0,0.5,0.1,0.8,0.1c0.4,0,0.8-0.1,1.1-0.2
		c0.3-0.1,0.5-0.3,0.7-0.5s0.2-0.5,0.2-0.8c0-0.4-0.2-0.8-0.5-1s-0.8-0.3-1.4-0.3h-1.1v-0.7h1.3c0.3,0,0.6-0.1,0.8-0.2
		c0.2-0.1,0.4-0.2,0.5-0.4s0.2-0.4,0.2-0.7c0-0.4-0.1-0.7-0.4-0.9s-0.7-0.3-1.3-0.3c-0.3,0-0.6,0-1,0.1c-0.3,0.1-0.6,0.2-0.9,0.3
		l-0.2-0.7c0.2-0.1,0.4-0.2,0.7-0.3c0.2-0.1,0.5-0.1,0.8-0.2c0.3,0,0.6-0.1,0.9-0.1c0.5,0,1,0.1,1.3,0.2c0.4,0.2,0.6,0.4,0.8,0.7
		s0.3,0.6,0.3,1s-0.1,0.8-0.3,1.1s-0.5,0.5-0.9,0.6c0.5,0.1,0.9,0.3,1.1,0.6c0.3,0.3,0.4,0.7,0.4,1.1c0,0.5-0.1,0.9-0.3,1.2
		s-0.6,0.6-1,0.8s-0.9,0.3-1.5,0.3c-0.3,0-0.7,0-0.9-0.1c-0.3,0-0.6-0.1-0.8-0.2C46.6,145.8,46.4,145.7,46.1,145.6z"/>
	<path d="M52.7,145.5c0.6-0.5,1.1-1,1.5-1.4s0.8-0.7,1-1c0.3-0.3,0.5-0.6,0.6-0.8c0.2-0.2,0.3-0.5,0.3-0.7c0.1-0.2,0.1-0.4,0.1-0.6
		c0-0.3-0.1-0.6-0.2-0.8s-0.3-0.4-0.5-0.5s-0.5-0.2-0.8-0.2s-0.6,0-0.9,0.1c-0.3,0.1-0.6,0.2-0.9,0.4l-0.3-0.7
		c0.2-0.1,0.4-0.3,0.7-0.4c0.2-0.1,0.5-0.2,0.8-0.2s0.5-0.1,0.8-0.1c0.5,0,0.9,0.1,1.2,0.3s0.6,0.4,0.8,0.7s0.3,0.7,0.3,1.2
		c0,0.2,0,0.4-0.1,0.7c0,0.2-0.1,0.5-0.3,0.7c-0.1,0.2-0.3,0.5-0.6,0.8c-0.2,0.3-0.6,0.6-1,1s-0.9,0.8-1.4,1.3h4v0.7h-5.2
		L52.7,145.5z"/>
</g>
<g class="st1">
	<path d="M25.7,158.2v-7.6h0.9v2.6c0.3-0.2,0.6-0.4,0.9-0.5s0.6-0.1,0.9-0.1c0.6,0,1.1,0.2,1.4,0.7s0.5,1.2,0.5,2.1
		c0,0.7-0.1,1.3-0.3,1.8c-0.2,0.5-0.5,0.8-0.9,1s-0.9,0.3-1.5,0.3c-0.3,0-0.6,0-0.9-0.1C26.4,158.4,26.1,158.3,25.7,158.2z
		 M26.6,157.7c0.2,0,0.4,0.1,0.6,0.1s0.3,0,0.5,0c0.4,0,0.7-0.1,1-0.2c0.2-0.2,0.4-0.4,0.6-0.8s0.2-0.8,0.2-1.4
		c0-0.5-0.1-0.8-0.2-1.1s-0.2-0.5-0.4-0.7c-0.2-0.2-0.4-0.2-0.7-0.2c-0.2,0-0.3,0-0.5,0.1c-0.2,0-0.3,0.1-0.5,0.2
		c-0.2,0.1-0.3,0.2-0.5,0.3v3.7H26.6z"/>
	<path d="M31.8,151.6c-0.2,0-0.3,0-0.4-0.1s-0.1-0.2-0.1-0.4s0-0.3,0.1-0.4c0.1-0.1,0.2-0.1,0.4-0.1c0.2,0,0.3,0,0.4,0.1
		c0.1,0.1,0.1,0.2,0.1,0.4s0,0.3-0.1,0.4S32,151.6,31.8,151.6z M31.3,158.4v-5.6h0.9v5.6H31.3z"/>
	<path d="M34.4,150.6v6.2c0,0.2,0,0.4,0.1,0.6c0.1,0.1,0.1,0.2,0.2,0.3c0.1,0,0.2,0.1,0.3,0.1s0.2,0,0.2,0c0.1,0,0.2,0,0.3-0.1
		l0.1,0.7c-0.1,0-0.3,0.1-0.4,0.1s-0.3,0-0.5,0c-0.3,0-0.5,0-0.7-0.1s-0.3-0.3-0.4-0.5s-0.1-0.6-0.1-1v-6.3H34.4z"/>
	<path d="M37.1,150.6v6.2c0,0.2,0,0.4,0.1,0.6c0.1,0.1,0.1,0.2,0.2,0.3c0.1,0,0.2,0.1,0.3,0.1s0.2,0,0.2,0c0.1,0,0.2,0,0.3-0.1
		l0.1,0.7c-0.1,0-0.3,0.1-0.4,0.1s-0.3,0-0.5,0c-0.3,0-0.5,0-0.7-0.1s-0.3-0.3-0.4-0.5s-0.1-0.6-0.1-1v-6.3H37.1z"/>
	<path d="M39.4,151.6c-0.2,0-0.3,0-0.4-0.1s-0.1-0.2-0.1-0.4s0-0.3,0.1-0.4c0.1-0.1,0.2-0.1,0.4-0.1s0.3,0,0.4,0.1
		c0.1,0.1,0.1,0.2,0.1,0.4s0,0.3-0.1,0.4S39.6,151.6,39.4,151.6z M39,158.4v-5.6h0.9v5.6H39z"/>
	<path d="M40.9,155.6c0-0.5,0-0.9,0.1-1.3s0.2-0.7,0.4-0.9s0.4-0.4,0.8-0.5s0.7-0.2,1.2-0.2s0.9,0.1,1.2,0.2
		c0.3,0.1,0.6,0.3,0.8,0.5s0.3,0.5,0.4,0.9c0.1,0.4,0.1,0.8,0.1,1.3s0,1-0.1,1.3c-0.1,0.4-0.2,0.7-0.4,0.9s-0.4,0.4-0.8,0.5
		s-0.7,0.2-1.1,0.2c-0.4,0-0.8-0.1-1.1-0.2s-0.6-0.3-0.8-0.5s-0.3-0.5-0.4-0.9C40.9,156.5,40.9,156.1,40.9,155.6z M41.8,155.6
		c0,0.6,0.1,1,0.2,1.3c0.1,0.3,0.3,0.6,0.5,0.7s0.5,0.2,0.9,0.2s0.7-0.1,0.9-0.2s0.4-0.4,0.5-0.7s0.2-0.8,0.2-1.3s0-1-0.1-1.3
		s-0.3-0.6-0.5-0.7c-0.2-0.1-0.5-0.2-0.9-0.2s-0.7,0.1-0.9,0.2c-0.2,0.1-0.4,0.4-0.5,0.7C41.8,154.6,41.8,155,41.8,155.6z"/>
	<path d="M46.9,158.4v-5.6h0.8v0.5c0.2-0.1,0.5-0.2,0.7-0.3s0.4-0.2,0.7-0.2c0.2,0,0.5-0.1,0.7-0.1c0.3,0,0.6,0.1,0.9,0.2
		s0.4,0.3,0.5,0.5s0.2,0.5,0.2,0.8v4.2h-0.9v-3.9c0-0.3-0.1-0.6-0.3-0.8s-0.4-0.3-0.8-0.3c-0.2,0-0.4,0-0.5,0.1
		c-0.2,0-0.3,0.1-0.5,0.2s-0.3,0.1-0.5,0.2v4.5L46.9,158.4L46.9,158.4z"/>
</g>
<g class="st1">
	<path d="M141,293.9c-0.2,0-0.4,0-0.6,0c-0.2,0-0.4-0.1-0.6-0.1s-0.4-0.1-0.6-0.1c-0.2,0-0.4-0.1-0.5-0.2l0.2-0.7
		c0.2,0.1,0.4,0.1,0.6,0.2c0.2,0,0.4,0.1,0.6,0.1c0.2,0,0.4,0.1,0.6,0.1c0.2,0,0.4,0,0.5,0c0.6,0,1-0.1,1.3-0.3
		c0.3-0.2,0.4-0.5,0.4-0.8c0-0.2,0-0.4-0.1-0.5c-0.1-0.2-0.2-0.3-0.4-0.4s-0.4-0.3-0.6-0.4s-0.5-0.2-0.9-0.4
		c-0.4-0.2-0.8-0.3-1.1-0.6c-0.3-0.2-0.5-0.4-0.7-0.7c-0.1-0.3-0.2-0.6-0.2-1s0.1-0.7,0.3-1s0.5-0.5,0.8-0.6
		c0.4-0.1,0.8-0.2,1.3-0.2c0.2,0,0.5,0,0.7,0s0.5,0.1,0.7,0.1s0.4,0.1,0.6,0.2l-0.2,0.7c-0.2-0.1-0.4-0.1-0.6-0.1
		c-0.2,0-0.4-0.1-0.6-0.1c-0.2,0-0.4,0-0.6,0c-0.5,0-0.9,0.1-1.2,0.3c-0.3,0.2-0.4,0.5-0.4,0.8c0,0.2,0,0.4,0.1,0.5
		c0.1,0.2,0.2,0.3,0.3,0.4s0.3,0.3,0.6,0.4s0.5,0.2,0.8,0.3c0.5,0.2,0.8,0.3,1.1,0.5s0.5,0.4,0.7,0.7c0.2,0.3,0.2,0.6,0.2,1
		c0,0.3-0.1,0.6-0.2,0.8c-0.1,0.2-0.3,0.4-0.5,0.6s-0.5,0.3-0.9,0.3C141.8,293.9,141.4,293.9,141,293.9z M141,286.5v-1.1h0.7v1.1
		H141z M141,294.9v-1.1l0.7-0.1v1.2H141z"/>
	<path d="M145,291.6v-5.1h0.9v5.1c0,0.3,0,0.5,0.1,0.7s0.2,0.3,0.3,0.4s0.3,0.2,0.4,0.3c0.2,0.1,0.3,0.1,0.5,0.1s0.4,0,0.6,0
		c0.2,0,0.4,0,0.6,0c0.2,0,0.4-0.1,0.5-0.1s0.3-0.2,0.4-0.3s0.2-0.3,0.3-0.4c0.1-0.2,0.1-0.4,0.1-0.6v-5.1h0.9v5.1
		c0,0.4,0,0.7-0.1,0.9c-0.1,0.3-0.2,0.5-0.4,0.7s-0.4,0.3-0.6,0.4c-0.2,0.1-0.5,0.2-0.8,0.2s-0.6,0.1-0.9,0.1c-0.3,0-0.6,0-0.9-0.1
		c-0.3,0-0.5-0.1-0.8-0.2c-0.2-0.1-0.4-0.2-0.6-0.4c-0.2-0.2-0.3-0.4-0.4-0.7C145,292.2,145,291.9,145,291.6z"/>
	<path d="M156.4,286.6l-0.2,0.7c-0.1,0-0.3-0.1-0.4-0.1c-0.2,0-0.3-0.1-0.5-0.1s-0.3,0-0.5-0.1c-0.2,0-0.3,0-0.5,0
		c-0.5,0-1,0.1-1.3,0.3c-0.3,0.2-0.5,0.5-0.5,0.9c0,0.2,0,0.3,0.1,0.5c0.1,0.1,0.2,0.3,0.3,0.4c0.2,0.1,0.4,0.2,0.6,0.3
		c0.3,0.1,0.6,0.2,1,0.4c0.4,0.1,0.7,0.3,1,0.4s0.5,0.3,0.7,0.5s0.3,0.4,0.4,0.6c0.1,0.2,0.1,0.4,0.1,0.7c0,0.4-0.1,0.8-0.3,1.1
		s-0.5,0.5-1,0.7c-0.4,0.2-0.9,0.2-1.5,0.2c-0.2,0-0.4,0-0.6,0c-0.2,0-0.5-0.1-0.7-0.1s-0.5-0.1-0.7-0.1s-0.4-0.1-0.6-0.2l0.2-0.7
		c0.2,0.1,0.3,0.1,0.5,0.2c0.2,0,0.4,0.1,0.6,0.1c0.2,0,0.4,0.1,0.6,0.1c0.2,0,0.4,0,0.6,0c0.4,0,0.7,0,1-0.1s0.5-0.2,0.6-0.4
		c0.1-0.2,0.2-0.4,0.2-0.6s0-0.3-0.1-0.5c-0.1-0.1-0.2-0.3-0.4-0.4s-0.4-0.2-0.7-0.3c-0.3-0.1-0.6-0.2-1-0.4c-0.4-0.1-0.7-0.3-1-0.4
		s-0.5-0.3-0.6-0.5c-0.2-0.2-0.3-0.4-0.4-0.6c-0.1-0.2-0.1-0.4-0.1-0.7c0-0.3,0.1-0.6,0.2-0.8c0.1-0.2,0.3-0.5,0.5-0.6
		s0.5-0.3,0.8-0.4s0.7-0.1,1.2-0.1c0.3,0,0.5,0,0.8,0s0.5,0.1,0.8,0.1C156.1,286.5,156.3,286.6,156.4,286.6z"/>
	<path d="M160.4,293.9c-0.6,0-1.2-0.1-1.6-0.4c-0.4-0.2-0.8-0.6-1-1.2s-0.3-1.2-0.3-2.1s0.1-1.7,0.4-2.2s0.6-1,1.1-1.3
		s1-0.4,1.7-0.4c0.3,0,0.5,0,0.8,0s0.5,0.1,0.7,0.1s0.5,0.1,0.7,0.2l-0.2,0.7c-0.2-0.1-0.4-0.1-0.6-0.2c-0.2-0.1-0.4-0.1-0.6-0.1
		s-0.4,0-0.6,0c-0.5,0-1,0.1-1.3,0.3c-0.3,0.2-0.6,0.6-0.8,1c-0.2,0.5-0.2,1-0.2,1.7c0,0.5,0,1,0.1,1.4s0.2,0.7,0.4,0.9
		s0.4,0.4,0.6,0.5c0.2,0.1,0.5,0.2,0.9,0.2c0.6,0,1-0.1,1.3-0.4s0.5-0.7,0.5-1.2c0-0.3-0.1-0.6-0.2-0.8s-0.3-0.4-0.6-0.5
		s-0.6-0.2-0.9-0.2c-0.3,0-0.6,0-0.8,0.1c-0.3,0.1-0.5,0.2-0.7,0.3c-0.2,0.1-0.4,0.3-0.6,0.5l-0.1-0.7c0.2-0.2,0.4-0.4,0.7-0.5
		s0.5-0.3,0.9-0.3c0.3-0.1,0.6-0.1,1-0.1c0.5,0,0.9,0.1,1.2,0.3s0.6,0.4,0.8,0.7c0.2,0.3,0.3,0.7,0.3,1.2c0,0.8-0.2,1.4-0.7,1.8
		C161.9,293.7,161.2,293.9,160.4,293.9z"/>
	<path d="M163.7,290.1c0-0.7,0.1-1.3,0.2-1.8s0.3-0.9,0.6-1.2c0.3-0.3,0.6-0.5,0.9-0.6c0.3-0.1,0.7-0.2,1.2-0.2s0.8,0.1,1.2,0.2
		c0.3,0.1,0.6,0.3,0.9,0.6s0.4,0.7,0.6,1.2c0.1,0.5,0.2,1.1,0.2,1.8c0,0.7-0.1,1.3-0.2,1.8c-0.1,0.5-0.3,0.9-0.6,1.2
		s-0.5,0.5-0.9,0.6c-0.3,0.1-0.7,0.2-1.1,0.2c-0.4,0-0.8-0.1-1.2-0.2c-0.3-0.1-0.6-0.3-0.9-0.6s-0.4-0.7-0.6-1.2
		C163.8,291.4,163.7,290.8,163.7,290.1z M164.6,290.1c0,0.6,0,1.1,0.1,1.5s0.2,0.7,0.4,0.9c0.2,0.2,0.4,0.4,0.6,0.5
		c0.2,0.1,0.5,0.1,0.8,0.1s0.5,0,0.8-0.1c0.2-0.1,0.4-0.2,0.6-0.5c0.2-0.2,0.3-0.5,0.4-0.9s0.1-0.9,0.1-1.5s0-1.1-0.1-1.5
		s-0.2-0.7-0.4-0.9c-0.2-0.2-0.4-0.4-0.6-0.5c-0.2-0.1-0.5-0.1-0.8-0.1s-0.5,0-0.8,0.1s-0.4,0.2-0.6,0.5c-0.2,0.2-0.3,0.5-0.4,0.9
		S164.6,289.5,164.6,290.1z"/>
	<path d="M170.1,293.3c0-0.2,0-0.3,0.1-0.4s0.2-0.1,0.4-0.1s0.3,0,0.4,0.1c0.1,0.1,0.1,0.2,0.1,0.4c0,0.2,0,0.3-0.1,0.4
		s-0.2,0.1-0.4,0.1s-0.3,0-0.4-0.1C170.2,293.6,170.1,293.5,170.1,293.3z"/>
	<path d="M174.9,293.9c-0.6,0-1.2-0.1-1.6-0.4c-0.4-0.2-0.8-0.6-1-1.2c-0.2-0.5-0.3-1.2-0.3-2.1s0.1-1.7,0.4-2.2
		c0.2-0.6,0.6-1,1.1-1.3s1-0.4,1.7-0.4c0.3,0,0.5,0,0.8,0s0.5,0.1,0.7,0.1s0.5,0.1,0.7,0.2l-0.2,0.7c-0.2-0.1-0.4-0.1-0.6-0.2
		c-0.2-0.1-0.4-0.1-0.6-0.1s-0.4,0-0.6,0c-0.5,0-1,0.1-1.3,0.3c-0.3,0.2-0.6,0.6-0.8,1c-0.2,0.5-0.2,1-0.2,1.7c0,0.5,0,1,0.1,1.4
		s0.2,0.7,0.4,0.9s0.4,0.4,0.6,0.5c0.2,0.1,0.5,0.2,0.9,0.2c0.6,0,1-0.1,1.3-0.4s0.5-0.7,0.5-1.2c0-0.3-0.1-0.6-0.2-0.8
		c-0.1-0.2-0.3-0.4-0.6-0.5s-0.6-0.2-0.9-0.2c-0.3,0-0.6,0-0.8,0.1c-0.3,0.1-0.5,0.2-0.7,0.3c-0.2,0.1-0.4,0.3-0.6,0.5l-0.1-0.7
		c0.2-0.2,0.4-0.4,0.7-0.5s0.5-0.3,0.9-0.3c0.3-0.1,0.6-0.1,1-0.1c0.5,0,0.9,0.1,1.2,0.3c0.3,0.2,0.6,0.4,0.8,0.7
		c0.2,0.3,0.3,0.7,0.3,1.2c0,0.8-0.2,1.4-0.7,1.8S175.7,293.9,174.9,293.9z"/>
	<path d="M181.4,293.6V286h0.9v2.6c0.3-0.2,0.6-0.4,0.9-0.5c0.3-0.1,0.6-0.1,0.9-0.1c0.6,0,1.1,0.2,1.4,0.7c0.3,0.5,0.5,1.2,0.5,2.1
		c0,0.7-0.1,1.3-0.3,1.8s-0.5,0.8-0.9,1s-0.9,0.3-1.5,0.3c-0.3,0-0.6,0-0.9-0.1C182.1,293.8,181.8,293.7,181.4,293.6z M182.3,293.1
		c0.2,0,0.4,0.1,0.6,0.1s0.3,0,0.5,0c0.4,0,0.7-0.1,1-0.2c0.2-0.2,0.4-0.4,0.6-0.8c0.1-0.3,0.2-0.8,0.2-1.4c0-0.5-0.1-0.8-0.2-1.1
		c-0.1-0.3-0.2-0.5-0.4-0.7s-0.4-0.2-0.7-0.2c-0.2,0-0.3,0-0.5,0.1c-0.2,0-0.3,0.1-0.5,0.2s-0.3,0.2-0.5,0.3v3.7H182.3z"/>
	<path d="M187.5,287c-0.2,0-0.3,0-0.4-0.1s-0.1-0.2-0.1-0.4c0-0.2,0-0.3,0.1-0.4s0.2-0.1,0.4-0.1s0.3,0,0.4,0.1
		c0.1,0.1,0.1,0.2,0.1,0.4c0,0.2,0,0.3-0.1,0.4S187.7,287,187.5,287z M187,293.8v-5.6h0.9v5.6H187z"/>
	<path d="M190.1,286v6.2c0,0.2,0,0.4,0.1,0.6c0.1,0.1,0.1,0.2,0.2,0.3c0.1,0,0.2,0.1,0.3,0.1s0.2,0,0.2,0c0.1,0,0.2,0,0.3-0.1
		l0.1,0.7c-0.1,0-0.3,0.1-0.4,0.1c-0.1,0-0.3,0-0.5,0c-0.3,0-0.5,0-0.7-0.1s-0.3-0.3-0.4-0.5s-0.1-0.6-0.1-1V286H190.1z"/>
	<path d="M192.8,286v6.2c0,0.2,0,0.4,0.1,0.6c0.1,0.1,0.1,0.2,0.2,0.3c0.1,0,0.2,0.1,0.3,0.1s0.2,0,0.2,0c0.1,0,0.2,0,0.3-0.1
		l0.1,0.7c-0.1,0-0.3,0.1-0.4,0.1c-0.1,0-0.3,0-0.5,0c-0.3,0-0.5,0-0.7-0.1s-0.3-0.3-0.4-0.5s-0.1-0.6-0.1-1V286H192.8z"/>
	<path d="M195.1,287c-0.2,0-0.3,0-0.4-0.1s-0.1-0.2-0.1-0.4c0-0.2,0-0.3,0.1-0.4s0.2-0.1,0.4-0.1s0.3,0,0.4,0.1
		c0.1,0.1,0.1,0.2,0.1,0.4c0,0.2,0,0.3-0.1,0.4S195.3,287,195.1,287z M194.6,293.8v-5.6h0.9v5.6H194.6z"/>
	<path d="M196.6,291c0-0.5,0-0.9,0.1-1.3s0.2-0.7,0.4-0.9s0.4-0.4,0.8-0.5c0.3-0.1,0.7-0.2,1.2-0.2s0.9,0.1,1.2,0.2s0.6,0.3,0.8,0.5
		s0.3,0.5,0.4,0.9s0.1,0.8,0.1,1.3s0,1-0.1,1.3c-0.1,0.4-0.2,0.7-0.4,0.9c-0.2,0.2-0.4,0.4-0.8,0.5s-0.7,0.2-1.1,0.2
		c-0.4,0-0.8-0.1-1.1-0.2s-0.6-0.3-0.8-0.5s-0.3-0.5-0.4-0.9C196.6,291.9,196.6,291.5,196.6,291z M197.5,291c0,0.6,0.1,1,0.2,1.3
		c0.1,0.3,0.3,0.6,0.5,0.7s0.5,0.2,0.9,0.2s0.7-0.1,0.9-0.2s0.4-0.4,0.5-0.7s0.2-0.8,0.2-1.3s0-1-0.1-1.3s-0.3-0.6-0.5-0.7
		s-0.5-0.2-0.9-0.2s-0.7,0.1-0.9,0.2s-0.4,0.4-0.5,0.7C197.5,290,197.5,290.4,197.5,291z"/>
	<path d="M202.6,293.8v-5.6h0.8v0.5c0.2-0.1,0.5-0.2,0.7-0.3c0.2-0.1,0.4-0.2,0.7-0.2c0.2,0,0.5-0.1,0.7-0.1c0.3,0,0.6,0.1,0.9,0.2
		c0.2,0.1,0.4,0.3,0.5,0.5s0.2,0.5,0.2,0.8v4.2h-0.9v-3.9c0-0.3-0.1-0.6-0.3-0.8s-0.4-0.3-0.8-0.3c-0.2,0-0.4,0-0.5,0.1
		c-0.2,0-0.3,0.1-0.5,0.2s-0.3,0.1-0.5,0.2v4.5L202.6,293.8L202.6,293.8z"/>
</g>
<g class="st1">
	<path d="M162.4,64.2c-0.2,0-0.4,0-0.5-0.1c-0.2-0.1-0.4-0.2-0.6-0.3c-0.2-0.1-0.4-0.3-0.6-0.6c-0.2-0.2-0.4-0.5-0.6-0.8
		c-0.2-0.3-0.5-0.7-0.7-1.1c-0.1,0-0.2,0-0.3,0s-0.2,0-0.3,0c-0.2,0-0.4,0-0.6,0c-0.2,0-0.4,0-0.6,0V64h-0.9v-7.4c0.3,0,0.6,0,0.8,0
		c0.3,0,0.5,0,0.7,0s0.5,0,0.7,0c0.5,0,1,0,1.4,0.1s0.7,0.2,0.9,0.4s0.4,0.4,0.5,0.7s0.2,0.6,0.2,1s-0.1,0.8-0.2,1.1
		c-0.1,0.3-0.3,0.5-0.6,0.7s-0.6,0.3-0.9,0.4c0.2,0.4,0.5,0.8,0.7,1.1s0.4,0.5,0.6,0.7s0.3,0.3,0.5,0.4s0.3,0.1,0.4,0.1
		c0,0,0,0,0.1,0s0.1,0,0.1,0v0.9H162.4C162.5,64.2,162.5,64.2,162.4,64.2z M159,60.4c0.4,0,0.7,0,0.9-0.1c0.3-0.1,0.5-0.1,0.6-0.3
		c0.2-0.1,0.3-0.3,0.4-0.5c0.1-0.2,0.1-0.4,0.1-0.7c0-0.4-0.1-0.7-0.2-0.9c-0.1-0.2-0.3-0.4-0.6-0.5s-0.7-0.1-1.2-0.1
		c-0.1,0-0.3,0-0.4,0c-0.1,0-0.2,0-0.3,0s-0.2,0-0.3,0s-0.2,0-0.4,0v3c0.1,0,0.3,0,0.4,0c0.1,0,0.2,0,0.4,0c0.1,0,0.2,0,0.3,0
		S158.9,60.4,159,60.4z"/>
	<path d="M163.2,61.8v-5.1h0.9v5.1c0,0.3,0,0.5,0.1,0.7s0.2,0.3,0.3,0.4c0.1,0.1,0.3,0.2,0.4,0.3c0.2,0.1,0.3,0.1,0.5,0.1
		s0.4,0,0.6,0c0.2,0,0.4,0,0.6,0c0.2,0,0.4-0.1,0.5-0.1c0.2-0.1,0.3-0.2,0.4-0.3c0.1-0.1,0.2-0.3,0.3-0.4s0.1-0.4,0.1-0.6v-5.1h0.9
		v5.1c0,0.4,0,0.7-0.1,0.9c-0.1,0.3-0.2,0.5-0.4,0.7s-0.4,0.3-0.6,0.4c-0.2,0.1-0.5,0.2-0.8,0.2s-0.6,0.1-0.9,0.1
		c-0.3,0-0.6,0-0.9-0.1c-0.3,0-0.5-0.1-0.8-0.2c-0.2-0.1-0.4-0.2-0.6-0.4c-0.2-0.2-0.3-0.4-0.4-0.7
		C163.3,62.5,163.2,62.2,163.2,61.8z"/>
	<path d="M174.7,56.9l-0.2,0.7c-0.1,0-0.3-0.1-0.4-0.1c-0.2,0-0.3-0.1-0.5-0.1s-0.4,0-0.5-0.1c-0.2,0-0.3,0-0.5,0
		c-0.5,0-1,0.1-1.3,0.3s-0.5,0.5-0.5,0.9c0,0.2,0,0.3,0.1,0.5c0.1,0.1,0.2,0.3,0.3,0.4c0.2,0.1,0.4,0.2,0.6,0.3
		c0.3,0.1,0.6,0.2,1,0.4c0.4,0.1,0.7,0.3,1,0.4c0.3,0.1,0.5,0.3,0.7,0.5s0.3,0.4,0.4,0.6c0.1,0.2,0.1,0.4,0.1,0.7
		c0,0.4-0.1,0.8-0.3,1.1s-0.5,0.5-1,0.7c-0.4,0.2-0.9,0.2-1.5,0.2c-0.2,0-0.4,0-0.6,0c-0.2,0-0.5-0.1-0.7-0.1s-0.5-0.1-0.7-0.1
		c-0.2-0.1-0.4-0.1-0.6-0.2l0.2-0.7c0.2,0.1,0.3,0.1,0.5,0.2c0.2,0,0.4,0.1,0.6,0.1c0.2,0,0.4,0.1,0.6,0.1c0.2,0,0.4,0,0.6,0
		c0.4,0,0.7,0,1-0.1s0.5-0.2,0.6-0.4s0.2-0.4,0.2-0.6c0-0.2,0-0.3-0.1-0.5c-0.1-0.1-0.2-0.3-0.4-0.4c-0.2-0.1-0.4-0.2-0.7-0.3
		s-0.6-0.2-1-0.4c-0.4-0.1-0.7-0.3-1-0.4c-0.3-0.1-0.5-0.3-0.6-0.5c-0.2-0.2-0.3-0.4-0.4-0.6c-0.1-0.2-0.1-0.4-0.1-0.7
		s0.1-0.6,0.2-0.8c0.1-0.2,0.3-0.5,0.5-0.6s0.5-0.3,0.8-0.4s0.7-0.1,1.2-0.1c0.3,0,0.5,0,0.8,0s0.5,0.1,0.8,0.1
		C174.4,56.8,174.6,56.9,174.7,56.9z"/>
	<path d="M180.6,56.9l-0.2,0.7c-0.1,0-0.3-0.1-0.4-0.1c-0.2,0-0.3-0.1-0.5-0.1s-0.3,0-0.5-0.1c-0.2,0-0.3,0-0.5,0
		c-0.5,0-1,0.1-1.3,0.3s-0.5,0.5-0.5,0.9c0,0.2,0,0.3,0.1,0.5c0.1,0.1,0.2,0.3,0.3,0.4c0.2,0.1,0.4,0.2,0.6,0.3
		c0.3,0.1,0.6,0.2,1,0.4c0.4,0.1,0.7,0.3,1,0.4c0.3,0.1,0.5,0.3,0.7,0.5s0.3,0.4,0.4,0.6c0.1,0.2,0.1,0.4,0.1,0.7
		c0,0.4-0.1,0.8-0.3,1.1s-0.5,0.5-1,0.7c-0.4,0.2-0.9,0.2-1.5,0.2c-0.2,0-0.4,0-0.6,0c-0.2,0-0.5-0.1-0.7-0.1s-0.5-0.1-0.7-0.1
		s-0.4-0.1-0.6-0.2l0.2-0.7c0.2,0.1,0.3,0.1,0.5,0.2c0.2,0,0.4,0.1,0.6,0.1c0.2,0,0.4,0.1,0.6,0.1c0.2,0,0.4,0,0.6,0
		c0.4,0,0.7,0,1-0.1s0.5-0.2,0.6-0.4s0.2-0.4,0.2-0.6c0-0.2,0-0.3-0.1-0.5c-0.1-0.1-0.2-0.3-0.4-0.4c-0.2-0.1-0.4-0.2-0.7-0.3
		s-0.6-0.2-1-0.4c-0.4-0.1-0.7-0.3-1-0.4c-0.3-0.1-0.5-0.3-0.6-0.5c-0.2-0.2-0.3-0.4-0.4-0.6c-0.1-0.2-0.1-0.4-0.1-0.7
		s0.1-0.6,0.2-0.8c0.1-0.2,0.3-0.5,0.5-0.6s0.5-0.3,0.8-0.4c0.3-0.1,0.7-0.1,1.2-0.1c0.3,0,0.5,0,0.8,0s0.5,0.1,0.8,0.1
		C180.2,56.8,180.4,56.9,180.6,56.9z"/>
	<path d="M182,64v-7.4h0.9V64H182z"/>
	<path d="M183.8,64l2.5-7.4h1l2.5,7.4h-1l-0.6-1.9h-2.9l-0.6,1.9H183.8z M185.6,61.4h2.5l-1.2-3.9L185.6,61.4z"/>
</g>
<g>
	<path d="M17.7,32.3c-0.4,0-0.8,0-1.2,0c-0.4,0-0.7,0-1.1,0c-0.3,0-0.7,0-1-0.1v-8.4c0.4,0,0.7-0.1,1.1-0.1c0.3,0,0.7,0,1,0
		c0.3,0,0.7,0,1.1,0c1,0,1.8,0.1,2.4,0.5c0.6,0.3,1,0.8,1.3,1.4c0.3,0.6,0.4,1.5,0.4,2.5c0,1-0.1,1.8-0.4,2.4
		c-0.3,0.6-0.7,1.1-1.3,1.4C19.3,32.1,18.6,32.3,17.7,32.3z M17.8,30.7c0.4,0,0.7-0.1,1-0.3c0.3-0.2,0.5-0.5,0.6-0.9
		c0.1-0.4,0.2-0.9,0.2-1.6c0-0.7-0.1-1.2-0.2-1.6c-0.1-0.4-0.3-0.7-0.6-0.8c-0.3-0.2-0.6-0.3-1-0.3c-0.1,0-0.3,0-0.4,0
		c-0.2,0-0.3,0-0.5,0c-0.1,0-0.3,0-0.4,0v5.3c0.1,0,0.2,0,0.3,0c0.1,0,0.2,0,0.3,0c0.1,0,0.2,0,0.3,0C17.6,30.7,17.7,30.7,17.8,30.7
		z"/>
	<path d="M22.7,32.1v-8.4h6v1.7h-4v1.6h3.7v1.6h-3.7v1.7H29v1.7H22.7z"/>
	<path d="M29.9,32.1v-8.4h6v1.8H32v2.1h3.4v1.7H32v2.8H29.9z"/>
	<path d="M36.8,32.1v-8.4h6v1.7h-4v1.6h3.7v1.6h-3.7v1.7H43v1.7H36.8z"/>
	<path d="M44,32.1v-8.4h1.9l3.2,5.3v-5.3h1.8v8.4h-1.9L45.8,27v5.2H44z"/>
	<path d="M51.9,28.1c0-1.1,0.2-1.9,0.5-2.6c0.3-0.7,0.8-1.1,1.4-1.4c0.6-0.3,1.4-0.5,2.3-0.5c0.3,0,0.5,0,0.8,0c0.2,0,0.4,0,0.6,0.1
		c0.2,0,0.4,0.1,0.6,0.1c0.2,0,0.4,0.1,0.6,0.2l-0.4,1.6c-0.2-0.1-0.5-0.1-0.7-0.1s-0.4-0.1-0.7-0.1c-0.2,0-0.4,0-0.6,0
		c-0.4,0-0.7,0-1,0.1c-0.3,0.1-0.5,0.2-0.7,0.5c-0.2,0.2-0.3,0.5-0.4,0.8c-0.1,0.3-0.1,0.8-0.1,1.3c0,0.5,0,0.9,0.1,1.2
		s0.2,0.6,0.4,0.8c0.2,0.2,0.4,0.3,0.7,0.4c0.3,0.1,0.6,0.1,1,0.1c0.4,0,0.7,0,1.1-0.1c0.4-0.1,0.8-0.1,1.1-0.2l0.4,1.6
		c-0.2,0.1-0.4,0.1-0.6,0.2c-0.2,0.1-0.4,0.1-0.7,0.1c-0.2,0-0.5,0.1-0.8,0.1c-0.3,0-0.6,0-0.9,0c-0.6,0-1.2-0.1-1.7-0.2
		c-0.5-0.2-0.9-0.4-1.2-0.7c-0.3-0.3-0.6-0.8-0.7-1.3C52,29.5,51.9,28.8,51.9,28.1z"/>
	<path d="M59.7,32.1v-8.4h6v1.7h-4v1.6h3.7v1.6h-3.7v1.7h4.2v1.7H59.7z"/>
	<path d="M70.1,32.1v-8.3c0.5,0,0.9-0.1,1.3-0.1c0.4,0,0.7,0,1.1-0.1c0.3,0,0.6,0,0.9,0c0.8,0,1.4,0.1,1.9,0.2
		c0.5,0.1,0.8,0.4,1,0.7c0.2,0.3,0.3,0.7,0.3,1.2c0,0.4-0.1,0.8-0.3,1.1c-0.2,0.3-0.5,0.6-0.9,0.7v0c0.5,0.1,0.9,0.4,1.2,0.8
		s0.4,0.8,0.4,1.4c0,0.5-0.1,0.9-0.2,1.2c-0.1,0.3-0.3,0.6-0.6,0.8s-0.7,0.4-1.1,0.5c-0.5,0.1-1,0.1-1.7,0.1c-0.3,0-0.5,0-0.7,0
		c-0.2,0-0.4,0-0.5,0c-0.2,0-0.3,0-0.5,0c-0.2,0-0.4,0-0.7,0S70.4,32.1,70.1,32.1z M72.1,27.2h1.6c0.2,0,0.4,0,0.5-0.1
		c0.1-0.1,0.3-0.2,0.3-0.3s0.1-0.3,0.1-0.5c0-0.2,0-0.4-0.1-0.6c-0.1-0.1-0.2-0.2-0.4-0.3s-0.5-0.1-0.8-0.1c-0.1,0-0.2,0-0.3,0
		c-0.1,0-0.1,0-0.2,0c-0.1,0-0.1,0-0.2,0c-0.1,0-0.1,0-0.2,0c-0.1,0-0.2,0-0.3,0V27.2z M72.1,30.6c0.1,0,0.3,0,0.4,0
		c0.1,0,0.2,0,0.3,0s0.2,0,0.3,0s0.2,0,0.2,0c0.4,0,0.8,0,1-0.1c0.2-0.1,0.4-0.2,0.5-0.3c0.1-0.2,0.1-0.4,0.1-0.6
		c0-0.3-0.1-0.6-0.3-0.7s-0.5-0.2-0.9-0.2h-1.6V30.6z"/>
	<path d="M77.9,29.4v-5.7h2v5.7c0,0.2,0,0.3,0.1,0.5c0,0.1,0.1,0.2,0.2,0.3s0.2,0.2,0.3,0.2c0.1,0.1,0.3,0.1,0.4,0.1
		c0.2,0,0.3,0,0.5,0c0.2,0,0.4,0,0.5,0c0.2,0,0.3-0.1,0.4-0.1c0.1-0.1,0.2-0.1,0.3-0.2s0.2-0.2,0.2-0.3c0-0.1,0.1-0.3,0.1-0.5v-5.7
		h2v5.7c0,0.4-0.1,0.8-0.2,1.1s-0.2,0.6-0.4,0.8c-0.2,0.2-0.4,0.4-0.7,0.5c-0.3,0.1-0.6,0.2-1,0.3s-0.8,0.1-1.2,0.1
		c-0.4,0-0.9,0-1.2-0.1c-0.4-0.1-0.7-0.2-1-0.3c-0.3-0.1-0.5-0.3-0.7-0.5c-0.2-0.2-0.3-0.5-0.4-0.8C77.9,30.2,77.9,29.8,77.9,29.4z"
		/>
	<path d="M89.4,32.3c-0.4,0-0.8,0-1.2,0c-0.4,0-0.7,0-1.1,0s-0.7,0-1-0.1v-8.4c0.4,0,0.7-0.1,1.1-0.1c0.3,0,0.7,0,1,0
		c0.3,0,0.7,0,1.1,0c1,0,1.8,0.1,2.4,0.5c0.6,0.3,1,0.8,1.3,1.4c0.3,0.6,0.4,1.5,0.4,2.5c0,1-0.1,1.8-0.4,2.4
		c-0.3,0.6-0.7,1.1-1.3,1.4S90.3,32.3,89.4,32.3z M89.6,30.7c0.4,0,0.7-0.1,1-0.3c0.3-0.2,0.5-0.5,0.6-0.9c0.1-0.4,0.2-0.9,0.2-1.6
		c0-0.7-0.1-1.2-0.2-1.6c-0.1-0.4-0.3-0.7-0.6-0.8c-0.3-0.2-0.6-0.3-1-0.3c-0.1,0-0.3,0-0.5,0c-0.2,0-0.3,0-0.5,0
		c-0.1,0-0.3,0-0.4,0v5.3c0.1,0,0.2,0,0.3,0c0.1,0,0.2,0,0.3,0c0.1,0,0.2,0,0.3,0S89.5,30.7,89.6,30.7z"/>
	<path d="M94.2,28.1c0-1,0.1-1.8,0.4-2.5c0.3-0.7,0.7-1.1,1.3-1.5c0.6-0.3,1.4-0.5,2.3-0.5c0.3,0,0.5,0,0.8,0c0.2,0,0.5,0,0.7,0.1
		c0.2,0,0.4,0.1,0.7,0.1c0.2,0,0.4,0.1,0.6,0.2l-0.4,1.6c-0.4-0.1-0.7-0.2-1.1-0.2c-0.4-0.1-0.7-0.1-1.1-0.1c-0.5,0-0.9,0.1-1.2,0.3
		c-0.3,0.2-0.6,0.5-0.7,0.9c-0.2,0.4-0.2,0.9-0.2,1.6c0,0.6,0.1,1.1,0.2,1.5c0.1,0.4,0.4,0.7,0.6,0.8c0.3,0.2,0.6,0.3,1.1,0.3
		c0.3,0,0.5,0,0.7,0c0.2,0,0.4-0.1,0.6-0.1V29H98v-1.6h3.3v4.2c-0.5,0.2-1,0.4-1.5,0.5c-0.6,0.1-1.2,0.2-1.8,0.2
		c-0.8,0-1.5-0.2-2.1-0.5s-1-0.8-1.2-1.4C94.3,29.8,94.2,29,94.2,28.1z"/>
	<path d="M102.4,32.1v-8.4h6v1.7h-4v1.6h3.7v1.6h-3.7v1.7h4.2v1.7H102.4z"/>
	<path d="M116.1,25.5h-2.5v6.6h-2v-6.6h-2.5v-1.8h7V25.5z"/>
	<path d="M123.1,24l-0.4,1.6c-0.2-0.1-0.3-0.1-0.6-0.2c-0.2,0-0.4-0.1-0.6-0.1s-0.4-0.1-0.7-0.1c-0.2,0-0.4,0-0.6,0
		c-0.5,0-0.8,0.1-1.1,0.2c-0.2,0.1-0.4,0.3-0.4,0.6c0,0.1,0,0.3,0.1,0.4c0.1,0.1,0.2,0.2,0.4,0.3c0.2,0.1,0.4,0.2,0.7,0.3
		c0.3,0.1,0.6,0.2,1,0.3c0.4,0.1,0.8,0.2,1.1,0.4c0.3,0.1,0.6,0.3,0.8,0.5c0.2,0.2,0.4,0.4,0.5,0.7c0.1,0.3,0.2,0.6,0.2,0.9
		c0,0.5-0.1,1-0.4,1.4c-0.3,0.4-0.7,0.7-1.3,0.9c-0.6,0.2-1.2,0.3-2.1,0.3c-0.3,0-0.6,0-0.8,0s-0.6-0.1-0.9-0.1s-0.6-0.1-0.8-0.2
		c-0.3-0.1-0.5-0.1-0.8-0.2l0.4-1.5c0.2,0.1,0.5,0.2,0.7,0.2s0.5,0.1,0.8,0.2s0.5,0.1,0.8,0.1c0.3,0,0.5,0,0.7,0
		c0.4,0,0.7,0,0.9-0.1c0.2-0.1,0.4-0.1,0.5-0.3c0.1-0.1,0.2-0.3,0.2-0.4c0-0.2-0.1-0.3-0.2-0.4c-0.1-0.1-0.3-0.2-0.5-0.3
		c-0.2-0.1-0.5-0.2-0.8-0.3c-0.3-0.1-0.7-0.2-1.1-0.3c-0.4-0.1-0.7-0.3-0.9-0.4c-0.3-0.2-0.5-0.3-0.7-0.5c-0.2-0.2-0.3-0.4-0.4-0.7
		c-0.1-0.3-0.1-0.5-0.1-0.9c0-0.4,0.1-0.7,0.2-1c0.1-0.3,0.4-0.6,0.6-0.8c0.3-0.2,0.7-0.4,1.1-0.5s1-0.2,1.6-0.2
		c0.4,0,0.7,0,1.1,0.1c0.4,0,0.7,0.1,1,0.2C122.6,23.9,122.9,24,123.1,24z"/>
	<path d="M124.1,26.6c0-0.4,0.1-0.6,0.2-0.8c0.2-0.2,0.4-0.3,0.8-0.3c0.4,0,0.7,0.1,0.8,0.3c0.2,0.2,0.2,0.4,0.2,0.8
		c0,0.3-0.1,0.6-0.2,0.8c-0.2,0.2-0.4,0.3-0.8,0.3c-0.4,0-0.7-0.1-0.8-0.3S124.1,26.9,124.1,26.6z M124.1,31.2
		c0-0.4,0.1-0.6,0.2-0.8c0.2-0.2,0.4-0.3,0.8-0.3c0.4,0,0.7,0.1,0.8,0.3c0.2,0.2,0.2,0.4,0.2,0.8c0,0.3-0.1,0.6-0.2,0.8
		c-0.2,0.2-0.4,0.3-0.8,0.3c-0.4,0-0.7-0.1-0.8-0.3C124.2,31.8,124.1,31.5,124.1,31.2z"/>
	<path d="M137.2,32.3c-0.2,0-0.5,0-0.7-0.1s-0.5-0.2-0.7-0.3s-0.5-0.3-0.8-0.6c-0.3-0.2-0.5-0.5-0.8-0.8c-0.3-0.3-0.5-0.7-0.8-1.1
		c0,0-0.1,0-0.2,0s-0.2,0-0.2,0c-0.1,0-0.2,0-0.3,0s-0.2,0-0.4,0v2.8h-2v-8.4c0.5,0,0.9-0.1,1.3-0.1c0.4,0,0.8,0,1.1,0
		c0.3,0,0.6,0,0.9,0c0.7,0,1.2,0.1,1.7,0.1c0.5,0.1,0.9,0.3,1.2,0.5c0.3,0.2,0.5,0.5,0.7,0.8c0.1,0.3,0.2,0.7,0.2,1.2
		c0,0.5-0.1,0.9-0.2,1.2c-0.1,0.3-0.3,0.6-0.6,0.8c-0.3,0.2-0.6,0.4-0.9,0.5c0.2,0.3,0.4,0.5,0.6,0.7c0.2,0.2,0.4,0.3,0.5,0.5
		c0.2,0.1,0.3,0.2,0.5,0.3c0.1,0.1,0.3,0.1,0.4,0.1c0,0,0.1,0,0.1,0s0.1,0,0.1,0l0,1.9c-0.1,0-0.1,0-0.2,0
		C137.4,32.3,137.3,32.3,137.2,32.3z M133.5,27.9c0.3,0,0.5,0,0.7-0.1c0.2,0,0.4-0.1,0.5-0.2c0.1-0.1,0.2-0.2,0.3-0.4
		c0.1-0.2,0.1-0.4,0.1-0.6c0-0.3,0-0.6-0.1-0.8c-0.1-0.2-0.3-0.3-0.5-0.4c-0.2-0.1-0.5-0.1-0.9-0.1c-0.1,0-0.2,0-0.3,0
		c-0.1,0-0.2,0-0.3,0c-0.1,0-0.2,0-0.3,0c-0.1,0-0.2,0-0.4,0v2.6c0.1,0,0.2,0,0.3,0c0.1,0,0.2,0,0.3,0c0.1,0,0.2,0,0.3,0
		C133.3,27.9,133.4,27.9,133.5,27.9z"/>
	<path d="M138.4,29.4v-5.7h2v5.7c0,0.2,0,0.3,0.1,0.5c0,0.1,0.1,0.2,0.2,0.3s0.2,0.2,0.3,0.2c0.1,0.1,0.3,0.1,0.4,0.1
		c0.2,0,0.3,0,0.5,0c0.2,0,0.4,0,0.5,0c0.2,0,0.3-0.1,0.4-0.1c0.1-0.1,0.2-0.1,0.3-0.2s0.2-0.2,0.2-0.3c0-0.1,0.1-0.3,0.1-0.5v-5.7
		h2v5.7c0,0.4-0.1,0.8-0.2,1.1s-0.2,0.6-0.4,0.8c-0.2,0.2-0.4,0.4-0.7,0.5c-0.3,0.1-0.6,0.2-1,0.3s-0.8,0.1-1.2,0.1
		c-0.4,0-0.9,0-1.2-0.1c-0.4-0.1-0.7-0.2-1-0.3c-0.3-0.1-0.5-0.3-0.7-0.5c-0.2-0.2-0.3-0.5-0.4-0.8
		C138.4,30.2,138.4,29.8,138.4,29.4z"/>
	<path d="M152.8,24l-0.4,1.6c-0.2-0.1-0.3-0.1-0.6-0.2c-0.2,0-0.4-0.1-0.6-0.1s-0.4-0.1-0.7-0.1c-0.2,0-0.4,0-0.6,0
		c-0.5,0-0.8,0.1-1.1,0.2c-0.2,0.1-0.4,0.3-0.4,0.6c0,0.1,0,0.3,0.1,0.4c0.1,0.1,0.2,0.2,0.4,0.3c0.2,0.1,0.4,0.2,0.7,0.3
		c0.3,0.1,0.6,0.2,1,0.3c0.4,0.1,0.8,0.2,1.1,0.4c0.3,0.1,0.6,0.3,0.8,0.5c0.2,0.2,0.4,0.4,0.5,0.7c0.1,0.3,0.2,0.6,0.2,0.9
		c0,0.5-0.1,1-0.4,1.4c-0.3,0.4-0.7,0.7-1.3,0.9c-0.6,0.2-1.2,0.3-2.1,0.3c-0.3,0-0.6,0-0.8,0s-0.6-0.1-0.9-0.1s-0.6-0.1-0.8-0.2
		c-0.3-0.1-0.5-0.1-0.8-0.2l0.4-1.5c0.2,0.1,0.5,0.2,0.7,0.2s0.5,0.1,0.8,0.2s0.5,0.1,0.8,0.1c0.3,0,0.5,0,0.7,0
		c0.4,0,0.7,0,0.9-0.1c0.2-0.1,0.4-0.1,0.5-0.3c0.1-0.1,0.2-0.3,0.2-0.4c0-0.2-0.1-0.3-0.2-0.4c-0.1-0.1-0.3-0.2-0.5-0.3
		c-0.2-0.1-0.5-0.2-0.8-0.3c-0.3-0.1-0.7-0.2-1.1-0.3c-0.4-0.1-0.7-0.3-0.9-0.4c-0.3-0.2-0.5-0.3-0.7-0.5c-0.2-0.2-0.3-0.4-0.4-0.7
		c-0.1-0.3-0.1-0.5-0.1-0.9c0-0.4,0.1-0.7,0.2-1c0.1-0.3,0.4-0.6,0.6-0.8c0.3-0.2,0.7-0.4,1.1-0.5s1-0.2,1.6-0.2
		c0.4,0,0.7,0,1.1,0.1c0.4,0,0.7,0.1,1,0.2C152.3,23.9,152.6,24,152.8,24z"/>
	<path d="M160.1,24l-0.4,1.6c-0.2-0.1-0.3-0.1-0.6-0.2c-0.2,0-0.4-0.1-0.6-0.1s-0.4-0.1-0.7-0.1c-0.2,0-0.4,0-0.6,0
		c-0.5,0-0.8,0.1-1.1,0.2c-0.2,0.1-0.4,0.3-0.4,0.6c0,0.1,0,0.3,0.1,0.4c0.1,0.1,0.2,0.2,0.4,0.3c0.2,0.1,0.4,0.2,0.7,0.3
		c0.3,0.1,0.6,0.2,1,0.3c0.4,0.1,0.8,0.2,1.1,0.4c0.3,0.1,0.6,0.3,0.8,0.5c0.2,0.2,0.4,0.4,0.5,0.7c0.1,0.3,0.2,0.6,0.2,0.9
		c0,0.5-0.1,1-0.4,1.4c-0.3,0.4-0.7,0.7-1.3,0.9c-0.6,0.2-1.2,0.3-2.1,0.3c-0.3,0-0.6,0-0.8,0s-0.6-0.1-0.9-0.1s-0.6-0.1-0.8-0.2
		c-0.3-0.1-0.5-0.1-0.8-0.2l0.4-1.5c0.2,0.1,0.5,0.2,0.7,0.2s0.5,0.1,0.8,0.2s0.5,0.1,0.8,0.1c0.3,0,0.5,0,0.7,0
		c0.4,0,0.7,0,0.9-0.1c0.2-0.1,0.4-0.1,0.5-0.3c0.1-0.1,0.2-0.3,0.2-0.4c0-0.2-0.1-0.3-0.2-0.4c-0.1-0.1-0.3-0.2-0.5-0.3
		c-0.2-0.1-0.5-0.2-0.8-0.3c-0.3-0.1-0.7-0.2-1.1-0.3c-0.4-0.1-0.7-0.3-0.9-0.4c-0.3-0.2-0.5-0.3-0.7-0.5c-0.2-0.2-0.3-0.4-0.4-0.7
		c-0.1-0.3-0.1-0.5-0.1-0.9c0-0.4,0.1-0.7,0.2-1c0.1-0.3,0.4-0.6,0.6-0.8c0.3-0.2,0.7-0.4,1.1-0.5s1-0.2,1.6-0.2
		c0.4,0,0.7,0,1.1,0.1c0.4,0,0.7,0.1,1,0.2C159.6,23.9,159.9,24,160.1,24z"/>
	<path d="M161.4,32.1v-8.4h2v8.4H161.4z"/>
	<path d="M164.1,32.1l2.7-8.4h2.4l2.7,8.4h-2.2l-0.4-1.6h-2.6l-0.4,1.6H164.1z M167.1,28.9h1.8l-0.9-3.6L167.1,28.9z"/>
	<path d="M177.7,32.1l-2.7-8.4l2.2,0l1.7,6.6l1.7-6.6l2.2,0l-2.7,8.4H177.7z"/>
	<path d="M189.5,24l-0.4,1.6c-0.2-0.1-0.3-0.1-0.6-0.2c-0.2,0-0.4-0.1-0.6-0.1s-0.4-0.1-0.7-0.1c-0.2,0-0.4,0-0.6,0
		c-0.5,0-0.8,0.1-1.1,0.2c-0.2,0.1-0.4,0.3-0.4,0.6c0,0.1,0,0.3,0.1,0.4c0.1,0.1,0.2,0.2,0.4,0.3c0.2,0.1,0.4,0.2,0.7,0.3
		c0.3,0.1,0.6,0.2,1,0.3c0.4,0.1,0.8,0.2,1.1,0.4c0.3,0.1,0.6,0.3,0.8,0.5c0.2,0.2,0.4,0.4,0.5,0.7c0.1,0.3,0.2,0.6,0.2,0.9
		c0,0.5-0.1,1-0.4,1.4c-0.3,0.4-0.7,0.7-1.3,0.9c-0.6,0.2-1.2,0.3-2.1,0.3c-0.3,0-0.6,0-0.8,0s-0.6-0.1-0.9-0.1s-0.6-0.1-0.8-0.2
		c-0.3-0.1-0.5-0.1-0.8-0.2l0.4-1.5c0.2,0.1,0.5,0.2,0.7,0.2s0.5,0.1,0.8,0.2s0.5,0.1,0.8,0.1c0.3,0,0.5,0,0.7,0
		c0.4,0,0.7,0,0.9-0.1c0.2-0.1,0.4-0.1,0.5-0.3c0.1-0.1,0.2-0.3,0.2-0.4c0-0.2-0.1-0.3-0.2-0.4c-0.1-0.1-0.3-0.2-0.5-0.3
		c-0.2-0.1-0.5-0.2-0.8-0.3c-0.3-0.1-0.7-0.2-1.1-0.3c-0.4-0.1-0.7-0.3-0.9-0.4c-0.3-0.2-0.5-0.3-0.7-0.5c-0.2-0.2-0.3-0.4-0.4-0.7
		c-0.1-0.3-0.1-0.5-0.1-0.9c0-0.4,0.1-0.7,0.2-1c0.1-0.3,0.4-0.6,0.6-0.8c0.3-0.2,0.7-0.4,1.1-0.5s1-0.2,1.6-0.2
		c0.4,0,0.7,0,1.1,0.1c0.4,0,0.7,0.1,1,0.2C189,23.9,189.3,24,189.5,24z"/>
	<path d="M193.9,29.4v-5.7h2v5.7c0,0.2,0,0.3,0.1,0.5c0,0.1,0.1,0.2,0.2,0.3s0.2,0.2,0.3,0.2c0.1,0.1,0.3,0.1,0.4,0.1
		c0.2,0,0.3,0,0.5,0c0.2,0,0.4,0,0.5,0c0.2,0,0.3-0.1,0.4-0.1c0.1-0.1,0.2-0.1,0.3-0.2s0.2-0.2,0.2-0.3c0-0.1,0.1-0.3,0.1-0.5v-5.7
		h2v5.7c0,0.4-0.1,0.8-0.2,1.1s-0.2,0.6-0.4,0.8c-0.2,0.2-0.4,0.4-0.7,0.5c-0.3,0.1-0.6,0.2-1,0.3s-0.8,0.1-1.2,0.1
		c-0.4,0-0.9,0-1.2-0.1c-0.4-0.1-0.7-0.2-1-0.3c-0.3-0.1-0.5-0.3-0.7-0.5c-0.2-0.2-0.3-0.5-0.4-0.8
		C193.9,30.2,193.9,29.8,193.9,29.4z"/>
	<path d="M209,32.3c-0.2,0-0.5,0-0.7-0.1s-0.5-0.2-0.7-0.3s-0.5-0.3-0.8-0.6l-2.5-2.2v3h-2v-8.4h2v2.9l3,2.5
		c0.2,0.2,0.4,0.4,0.6,0.5c0.2,0.1,0.3,0.2,0.5,0.3c0.1,0.1,0.3,0.1,0.4,0.2c0.1,0,0.3,0,0.4,0c0,0,0.1,0,0.1,0s0.1,0,0.1,0v2.1
		c-0.1,0-0.1,0-0.2,0C209.1,32.3,209.1,32.3,209,32.3z M205.8,28.6l-1.3-1.1c0.2-0.2,0.4-0.3,0.7-0.5c0.2-0.2,0.5-0.4,0.7-0.7
		c0.2-0.2,0.5-0.5,0.7-0.8c0.2-0.3,0.4-0.6,0.6-0.9s0.4-0.6,0.5-1l1.6,0.8c-0.2,0.5-0.4,0.9-0.6,1.3s-0.5,0.8-0.8,1.1
		c-0.3,0.4-0.6,0.7-1,1C206.5,28.1,206.2,28.4,205.8,28.6z"/>
	<path d="M217.3,32.3c-0.2,0-0.5,0-0.7-0.1s-0.5-0.2-0.7-0.3s-0.5-0.3-0.8-0.6c-0.3-0.2-0.5-0.5-0.8-0.8c-0.3-0.3-0.5-0.7-0.8-1.1
		c0,0-0.1,0-0.2,0s-0.2,0-0.2,0c-0.1,0-0.2,0-0.3,0s-0.2,0-0.4,0v2.8h-2v-8.4c0.5,0,0.9-0.1,1.3-0.1c0.4,0,0.8,0,1.1,0
		c0.3,0,0.6,0,0.9,0c0.7,0,1.2,0.1,1.7,0.1c0.5,0.1,0.9,0.3,1.2,0.5c0.3,0.2,0.5,0.5,0.7,0.8c0.1,0.3,0.2,0.7,0.2,1.2
		c0,0.5-0.1,0.9-0.2,1.2c-0.1,0.3-0.3,0.6-0.6,0.8c-0.3,0.2-0.6,0.4-0.9,0.5c0.2,0.3,0.4,0.5,0.6,0.7c0.2,0.2,0.4,0.3,0.5,0.5
		c0.2,0.1,0.3,0.2,0.5,0.3c0.1,0.1,0.3,0.1,0.4,0.1c0,0,0.1,0,0.1,0s0.1,0,0.1,0l0,1.9c-0.1,0-0.1,0-0.2,0
		C217.5,32.3,217.4,32.3,217.3,32.3z M213.6,27.9c0.3,0,0.5,0,0.7-0.1c0.2,0,0.4-0.1,0.5-0.2c0.1-0.1,0.2-0.2,0.3-0.4
		c0.1-0.2,0.1-0.4,0.1-0.6c0-0.3,0-0.6-0.1-0.8c-0.1-0.2-0.3-0.3-0.5-0.4c-0.2-0.1-0.5-0.1-0.9-0.1c-0.1,0-0.2,0-0.3,0
		c-0.1,0-0.2,0-0.3,0c-0.1,0-0.2,0-0.3,0c-0.1,0-0.2,0-0.4,0v2.6c0.1,0,0.2,0,0.3,0c0.1,0,0.2,0,0.3,0c0.1,0,0.2,0,0.3,0
		C213.3,27.9,213.4,27.9,213.6,27.9z"/>
	<path d="M218.1,32.1l2.7-8.4h2.4l2.7,8.4h-2.2l-0.4-1.6h-2.6l-0.4,1.6H218.1z M221,28.9h1.8l-0.9-3.6L221,28.9z"/>
	<path d="M226.6,32.1v-8.4h2v8.4H226.6z"/>
	<path d="M229.9,32.1v-8.4h1.9L235,29v-5.3h1.8v8.4h-1.9l-3.2-5.2v5.2H229.9z"/>
	<path d="M238.2,32.1v-8.4h6v1.7h-4v1.6h3.7v1.6h-3.7v1.7h4.2v1.7H238.2z"/>
	<path d="M248.4,29c0-0.8,0.1-1.5,0.2-2.2s0.3-1.3,0.6-1.8c0.3-0.5,0.6-0.9,1-1.2c0.4-0.3,0.9-0.5,1.4-0.6v1.4
		c-0.3,0.1-0.5,0.3-0.7,0.5c-0.2,0.2-0.4,0.5-0.5,0.8c-0.1,0.3-0.2,0.8-0.3,1.3S250,28.3,250,29c0,0.7,0,1.3,0.1,1.8
		c0.1,0.5,0.1,0.9,0.3,1.3s0.3,0.6,0.5,0.8c0.2,0.2,0.4,0.4,0.7,0.5v1.4c-0.6-0.1-1-0.3-1.4-0.6s-0.7-0.7-1-1.2
		c-0.3-0.5-0.4-1.1-0.6-1.8S248.4,29.8,248.4,29z"/>
	<path d="M252.5,30.8c0.6-0.4,1.1-0.8,1.5-1.2c0.4-0.3,0.8-0.7,1.1-0.9c0.3-0.3,0.5-0.5,0.7-0.8c0.2-0.2,0.3-0.4,0.4-0.6
		c0.1-0.2,0.1-0.4,0.1-0.6c0-0.2,0-0.5-0.1-0.6c-0.1-0.2-0.2-0.3-0.4-0.4c-0.2-0.1-0.4-0.1-0.7-0.1c-0.3,0-0.6,0-0.9,0.1
		c-0.3,0.1-0.6,0.2-1,0.4l-0.6-1.7c0.3-0.2,0.6-0.3,0.9-0.4s0.7-0.2,1-0.3s0.7-0.1,1-0.1c0.6,0,1.2,0.1,1.6,0.3
		c0.4,0.2,0.8,0.5,1,0.9c0.2,0.4,0.3,0.8,0.3,1.4c0,0.3,0,0.5-0.1,0.7s-0.1,0.5-0.3,0.7c-0.1,0.2-0.3,0.5-0.5,0.8s-0.5,0.6-0.8,0.9
		c-0.3,0.3-0.8,0.7-1.3,1.2h3.5v1.6h-6.4L252.5,30.8z"/>
	<path d="M259.8,27.9c0-0.8,0.1-1.5,0.2-2.1c0.2-0.6,0.4-1,0.7-1.3c0.3-0.3,0.7-0.6,1.1-0.7c0.4-0.1,0.9-0.2,1.5-0.2
		c0.5,0,1,0.1,1.5,0.2c0.4,0.1,0.8,0.4,1.1,0.7c0.3,0.3,0.5,0.8,0.7,1.3c0.2,0.6,0.2,1.2,0.2,2.1c0,0.8-0.1,1.5-0.3,2.1
		c-0.2,0.6-0.4,1-0.7,1.3c-0.3,0.3-0.7,0.6-1.1,0.7c-0.4,0.1-0.9,0.2-1.4,0.2c-0.5,0-1-0.1-1.4-0.2c-0.4-0.1-0.8-0.4-1.1-0.7
		s-0.5-0.8-0.7-1.3C259.9,29.5,259.8,28.8,259.8,27.9z M261.9,28c0,0.6,0,1,0.1,1.4c0.1,0.4,0.2,0.6,0.3,0.8
		c0.1,0.2,0.3,0.3,0.5,0.4c0.2,0.1,0.4,0.1,0.6,0.1c0.2,0,0.4,0,0.6-0.1c0.2-0.1,0.3-0.2,0.5-0.4c0.1-0.2,0.2-0.5,0.3-0.8
		c0.1-0.4,0.1-0.8,0.1-1.4c0-0.6,0-1.1-0.1-1.5c-0.1-0.4-0.2-0.7-0.3-0.9c-0.1-0.2-0.3-0.3-0.5-0.4c-0.2-0.1-0.4-0.1-0.6-0.1
		c-0.2,0-0.4,0-0.6,0.1c-0.2,0.1-0.3,0.2-0.5,0.4c-0.1,0.2-0.2,0.5-0.3,0.9C261.9,26.9,261.9,27.4,261.9,28z"/>
	<path d="M267.9,30.8c0.6-0.4,1.1-0.8,1.5-1.2c0.4-0.3,0.8-0.7,1.1-0.9c0.3-0.3,0.5-0.5,0.7-0.8c0.2-0.2,0.3-0.4,0.4-0.6
		c0.1-0.2,0.1-0.4,0.1-0.6c0-0.2,0-0.5-0.1-0.6c-0.1-0.2-0.2-0.3-0.4-0.4c-0.2-0.1-0.4-0.1-0.7-0.1c-0.3,0-0.6,0-0.9,0.1
		c-0.3,0.1-0.6,0.2-1,0.4l-0.6-1.7c0.3-0.2,0.6-0.3,0.9-0.4s0.7-0.2,1-0.3s0.7-0.1,1-0.1c0.6,0,1.2,0.1,1.6,0.3
		c0.4,0.2,0.8,0.5,1,0.9c0.2,0.4,0.3,0.8,0.3,1.4c0,0.3,0,0.5-0.1,0.7s-0.1,0.5-0.3,0.7c-0.1,0.2-0.3,0.5-0.5,0.8s-0.5,0.6-0.8,0.9
		c-0.3,0.3-0.8,0.7-1.3,1.2h3.5v1.6h-6.4L267.9,30.8z"/>
	<path d="M275.2,27.9c0-0.8,0.1-1.5,0.2-2.1c0.2-0.6,0.4-1,0.7-1.3c0.3-0.3,0.7-0.6,1.1-0.7c0.4-0.1,0.9-0.2,1.5-0.2
		c0.5,0,1,0.1,1.5,0.2c0.4,0.1,0.8,0.4,1.1,0.7c0.3,0.3,0.5,0.8,0.7,1.3c0.2,0.6,0.2,1.2,0.2,2.1c0,0.8-0.1,1.5-0.3,2.1
		c-0.2,0.6-0.4,1-0.7,1.3c-0.3,0.3-0.7,0.6-1.1,0.7c-0.4,0.1-0.9,0.2-1.4,0.2c-0.5,0-1-0.1-1.4-0.2c-0.4-0.1-0.8-0.4-1.1-0.7
		s-0.5-0.8-0.7-1.3C275.3,29.5,275.2,28.8,275.2,27.9z M277.2,28c0,0.6,0,1,0.1,1.4c0.1,0.4,0.2,0.6,0.3,0.8
		c0.1,0.2,0.3,0.3,0.5,0.4c0.2,0.1,0.4,0.1,0.6,0.1c0.2,0,0.4,0,0.6-0.1c0.2-0.1,0.3-0.2,0.5-0.4c0.1-0.2,0.2-0.5,0.3-0.8
		c0.1-0.4,0.1-0.8,0.1-1.4c0-0.6,0-1.1-0.1-1.5c-0.1-0.4-0.2-0.7-0.3-0.9c-0.1-0.2-0.3-0.3-0.5-0.4c-0.2-0.1-0.4-0.1-0.6-0.1
		c-0.2,0-0.4,0-0.6,0.1c-0.2,0.1-0.3,0.2-0.5,0.4c-0.1,0.2-0.2,0.5-0.3,0.9C277.2,26.9,277.2,27.4,277.2,28z"/>
	<path d="M282.8,33.3c0.3-0.1,0.5-0.3,0.7-0.5c0.2-0.2,0.4-0.5,0.5-0.8s0.2-0.8,0.3-1.3c0.1-0.5,0.1-1.1,0.1-1.8
		c0-0.7,0-1.3-0.1-1.8s-0.2-0.9-0.3-1.3c-0.1-0.3-0.3-0.6-0.5-0.8c-0.2-0.2-0.4-0.4-0.7-0.5v-1.4c0.6,0.1,1,0.3,1.4,0.6
		c0.4,0.3,0.7,0.7,1,1.2c0.3,0.5,0.4,1.1,0.6,1.8s0.2,1.4,0.2,2.2s-0.1,1.5-0.2,2.2s-0.3,1.3-0.6,1.8c-0.3,0.5-0.6,0.9-1,1.2
		s-0.9,0.5-1.4,0.6V33.3z"/>
</g>
</svg>
